<svg width="940" height="324" viewBox="0 0 940 324" fill="none" xmlns="http://www.w3.org/2000/svg">
<path d="M598.75 35L597.85 31.275H592.8L591.925 35H587.675L592.9 17.675H597.875L603.1 35H598.75ZM593.5 28.3H597.15L595.325 20.65L593.5 28.3ZM610.912 25.275V23.35H620.312V25.275H610.912ZM610.912 30.1V28.175H620.312V30.1H610.912ZM640.154 35L638.854 30.675H632.329L631.029 35H628.629L634.154 17.775H637.154L642.654 35H640.154ZM632.904 28.75H638.279L635.604 19.75L632.904 28.75ZM654.985 35H653.01L652.835 32.95C652.335 33.7667 651.76 34.3667 651.11 34.75C650.46 35.1167 649.668 35.3 648.735 35.3C647.585 35.3 646.685 34.95 646.035 34.25C645.385 33.55 645.06 32.5583 645.06 31.275V21.825H647.36V31.025C647.36 31.925 647.518 32.5667 647.835 32.95C648.151 33.3167 648.668 33.5 649.385 33.5C650.668 33.5 651.768 32.7417 652.685 31.225V21.825H654.985V35ZM663.31 21.525C664.21 21.525 665.019 21.65 665.735 21.9C666.452 22.15 667.135 22.525 667.785 23.025L666.81 24.475C666.21 24.0917 665.635 23.8083 665.085 23.625C664.552 23.4417 663.985 23.35 663.385 23.35C662.635 23.35 662.044 23.5083 661.61 23.825C661.177 24.125 660.96 24.5417 660.96 25.075C660.96 25.6083 661.16 26.025 661.56 26.325C661.977 26.625 662.719 26.9167 663.785 27.2C665.252 27.5667 666.344 28.0667 667.06 28.7C667.794 29.3333 668.16 30.2 668.16 31.3C668.16 32.6 667.652 33.5917 666.635 34.275C665.635 34.9583 664.41 35.3 662.96 35.3C660.96 35.3 659.302 34.725 657.985 33.575L659.21 32.175C660.327 33.025 661.56 33.45 662.91 33.45C663.777 33.45 664.46 33.275 664.96 32.925C665.477 32.5583 665.735 32.0667 665.735 31.45C665.735 31 665.644 30.6417 665.46 30.375C665.277 30.0917 664.96 29.85 664.51 29.65C664.06 29.4333 663.402 29.2083 662.535 28.975C661.135 28.6083 660.119 28.1167 659.485 27.5C658.869 26.8833 658.56 26.1 658.56 25.15C658.56 24.4667 658.76 23.85 659.16 23.3C659.577 22.7333 660.144 22.3 660.86 22C661.594 21.6833 662.41 21.525 663.31 21.525ZM678.055 34.4C677.189 35 676.205 35.3 675.105 35.3C673.989 35.3 673.114 34.9833 672.48 34.35C671.864 33.7 671.555 32.7667 671.555 31.55V23.6H669.255V21.825H671.555V18.85L673.855 18.575V21.825H676.98L676.73 23.6H673.855V31.45C673.855 32.1333 673.972 32.6333 674.205 32.95C674.455 33.25 674.864 33.4 675.43 33.4C675.947 33.4 676.53 33.225 677.18 32.875L678.055 34.4ZM686.163 21.525C686.63 21.525 687.063 21.575 687.463 21.675L687.038 23.925C686.638 23.825 686.255 23.775 685.888 23.775C685.072 23.775 684.413 24.075 683.913 24.675C683.413 25.275 683.022 26.2083 682.738 27.475V35H680.438V21.825H682.413L682.638 24.5C682.988 23.5167 683.463 22.775 684.063 22.275C684.663 21.775 685.363 21.525 686.163 21.525ZM698.078 31.925C698.078 32.4583 698.17 32.8583 698.353 33.125C698.536 33.375 698.811 33.5667 699.178 33.7L698.653 35.3C697.97 35.2167 697.42 35.025 697.003 34.725C696.586 34.425 696.278 33.9583 696.078 33.325C695.195 34.6417 693.886 35.3 692.153 35.3C690.853 35.3 689.828 34.9333 689.078 34.2C688.328 33.4667 687.953 32.5083 687.953 31.325C687.953 29.925 688.453 28.85 689.453 28.1C690.47 27.35 691.903 26.975 693.753 26.975H695.778V26C695.778 25.0667 695.553 24.4 695.103 24C694.653 23.6 693.961 23.4 693.028 23.4C692.061 23.4 690.878 23.6333 689.478 24.1L688.903 22.425C690.536 21.825 692.053 21.525 693.453 21.525C695.003 21.525 696.161 21.9083 696.928 22.675C697.695 23.425 698.078 24.5 698.078 25.9V31.925ZM692.678 33.575C693.995 33.575 695.028 32.8917 695.778 31.525V28.5H694.053C691.62 28.5 690.403 29.4 690.403 31.2C690.403 31.9833 690.595 32.575 690.978 32.975C691.361 33.375 691.928 33.575 692.678 33.575ZM705.183 35.3C704.333 35.3 703.658 35.05 703.158 34.55C702.674 34.0333 702.433 33.3167 702.433 32.4V16.525L704.733 16.25V32.35C704.733 32.7167 704.791 32.9833 704.908 33.15C705.041 33.3167 705.258 33.4 705.558 33.4C705.874 33.4 706.158 33.35 706.408 33.25L707.008 34.85C706.458 35.15 705.849 35.3 705.183 35.3ZM712.182 21.825V35H709.882V21.825H712.182ZM711.007 15.5C711.49 15.5 711.882 15.65 712.182 15.95C712.482 16.25 712.632 16.625 712.632 17.075C712.632 17.525 712.482 17.9 712.182 18.2C711.882 18.4833 711.49 18.625 711.007 18.625C710.54 18.625 710.157 18.4833 709.857 18.2C709.557 17.9 709.407 17.525 709.407 17.075C709.407 16.625 709.557 16.25 709.857 15.95C710.157 15.65 710.54 15.5 711.007 15.5ZM725.813 31.925C725.813 32.4583 725.904 32.8583 726.088 33.125C726.271 33.375 726.546 33.5667 726.913 33.7L726.388 35.3C725.704 35.2167 725.154 35.025 724.738 34.725C724.321 34.425 724.013 33.9583 723.813 33.325C722.929 34.6417 721.621 35.3 719.888 35.3C718.588 35.3 717.563 34.9333 716.813 34.2C716.063 33.4667 715.688 32.5083 715.688 31.325C715.688 29.925 716.188 28.85 717.188 28.1C718.204 27.35 719.638 26.975 721.488 26.975H723.513V26C723.513 25.0667 723.288 24.4 722.838 24C722.388 23.6 721.696 23.4 720.763 23.4C719.796 23.4 718.613 23.6333 717.213 24.1L716.638 22.425C718.271 21.825 719.788 21.525 721.188 21.525C722.738 21.525 723.896 21.9083 724.663 22.675C725.429 23.425 725.813 24.5 725.813 25.9V31.925ZM720.413 33.575C721.729 33.575 722.763 32.8917 723.513 31.525V28.5H721.788C719.354 28.5 718.138 29.4 718.138 31.2C718.138 31.9833 718.329 32.575 718.713 32.975C719.096 33.375 719.663 33.575 720.413 33.575ZM598.85 55.825C600 56.0417 600.933 56.4667 601.65 57.1C602.383 57.7333 602.75 58.6833 602.75 59.95C602.75 61.8 602.083 63.1083 600.75 63.875C599.433 64.625 597.583 65 595.2 65H589.625V47.675H594.525C596.958 47.675 598.817 48.025 600.1 48.725C601.383 49.4083 602.025 50.5333 602.025 52.1C602.025 53.1167 601.717 53.9417 601.1 54.575C600.5 55.1917 599.75 55.6083 598.85 55.825ZM593.725 50.575V54.6H595.25C596.983 54.6 597.85 53.9 597.85 52.5C597.85 51.8 597.617 51.3083 597.15 51.025C596.683 50.725 595.942 50.575 594.925 50.575H593.725ZM595.225 62.025C596.308 62.025 597.125 61.8667 597.675 61.55C598.242 61.2167 598.525 60.6083 598.525 59.725C598.525 58.125 597.525 57.325 595.525 57.325H593.725V62.025H595.225ZM611.596 55.275V53.35H620.996V55.275H611.596ZM611.596 60.1V58.175H620.996V60.1H611.596ZM639.262 55.9C640.445 56.1 641.404 56.5167 642.137 57.15C642.87 57.7833 643.237 58.7667 643.237 60.1C643.237 63.3667 640.962 65 636.412 65H631.662V47.775H635.737C637.92 47.775 639.587 48.1333 640.737 48.85C641.904 49.5667 642.487 50.6583 642.487 52.125C642.487 53.125 642.17 53.9583 641.537 54.625C640.92 55.2917 640.162 55.7167 639.262 55.9ZM634.037 49.65V55.075H636.637C637.637 55.075 638.454 54.8333 639.087 54.35C639.737 53.8667 640.062 53.1833 640.062 52.3C640.062 51.3 639.72 50.6083 639.037 50.225C638.37 49.8417 637.354 49.65 635.987 49.65H634.037ZM636.412 63.1C637.812 63.1 638.879 62.8917 639.612 62.475C640.362 62.0583 640.737 61.2667 640.737 60.1C640.737 58.9667 640.379 58.15 639.662 57.65C638.945 57.15 638.012 56.9 636.862 56.9H634.037V63.1H636.412ZM655.622 61.925C655.622 62.4583 655.714 62.8583 655.897 63.125C656.08 63.375 656.355 63.5667 656.722 63.7L656.197 65.3C655.514 65.2167 654.964 65.025 654.547 64.725C654.13 64.425 653.822 63.9583 653.622 63.325C652.739 64.6417 651.43 65.3 649.697 65.3C648.397 65.3 647.372 64.9333 646.622 64.2C645.872 63.4667 645.497 62.5083 645.497 61.325C645.497 59.925 645.997 58.85 646.997 58.1C648.014 57.35 649.447 56.975 651.297 56.975H653.322V56C653.322 55.0667 653.097 54.4 652.647 54C652.197 53.6 651.505 53.4 650.572 53.4C649.605 53.4 648.422 53.6333 647.022 54.1L646.447 52.425C648.08 51.825 649.597 51.525 650.997 51.525C652.547 51.525 653.705 51.9083 654.472 52.675C655.239 53.425 655.622 54.5 655.622 55.9V61.925ZM650.222 63.575C651.539 63.575 652.572 62.8917 653.322 61.525V58.5H651.597C649.164 58.5 647.947 59.4 647.947 61.2C647.947 61.9833 648.139 62.575 648.522 62.975C648.905 63.375 649.472 63.575 650.222 63.575ZM666.546 51.525C667.746 51.525 668.679 51.8833 669.346 52.6C670.029 53.3167 670.371 54.3 670.371 55.55V65H668.071V55.875C668.071 54.9417 667.896 54.2833 667.546 53.9C667.196 53.5167 666.679 53.325 665.996 53.325C665.296 53.325 664.679 53.525 664.146 53.925C663.612 54.325 663.112 54.9 662.646 55.65V65H660.346V51.825H662.321L662.521 53.775C662.987 53.075 663.562 52.525 664.246 52.125C664.946 51.725 665.712 51.525 666.546 51.525ZM685.619 52.425C685.119 52.5917 684.569 52.7 683.969 52.75C683.369 52.8 682.636 52.825 681.769 52.825C683.319 53.525 684.094 54.6333 684.094 56.15C684.094 57.4667 683.644 58.5417 682.744 59.375C681.844 60.2083 680.619 60.625 679.069 60.625C678.469 60.625 677.911 60.5417 677.394 60.375C677.194 60.5083 677.036 60.6917 676.919 60.925C676.802 61.1417 676.744 61.3667 676.744 61.6C676.744 62.3167 677.319 62.675 678.469 62.675H680.569C681.452 62.675 682.236 62.8333 682.919 63.15C683.602 63.4667 684.127 63.9 684.494 64.45C684.877 65 685.069 65.625 685.069 66.325C685.069 67.6083 684.544 68.5917 683.494 69.275C682.444 69.975 680.911 70.325 678.894 70.325C677.477 70.325 676.352 70.175 675.519 69.875C674.702 69.5917 674.119 69.1583 673.769 68.575C673.419 67.9917 673.244 67.2417 673.244 66.325H675.319C675.319 66.8583 675.419 67.275 675.619 67.575C675.819 67.8917 676.177 68.125 676.694 68.275C677.211 68.4417 677.944 68.525 678.894 68.525C680.277 68.525 681.261 68.35 681.844 68C682.444 67.6667 682.744 67.1583 682.744 66.475C682.744 65.8583 682.511 65.3917 682.044 65.075C681.577 64.7583 680.927 64.6 680.094 64.6H678.019C676.902 64.6 676.052 64.3667 675.469 63.9C674.902 63.4167 674.619 62.8167 674.619 62.1C674.619 61.6667 674.744 61.25 674.994 60.85C675.244 60.45 675.602 60.0917 676.069 59.775C675.302 59.375 674.736 58.8833 674.369 58.3C674.019 57.7 673.844 56.975 673.844 56.125C673.844 55.2417 674.061 54.45 674.494 53.75C674.944 53.05 675.552 52.5083 676.319 52.125C677.102 51.725 677.969 51.525 678.919 51.525C679.952 51.5417 680.819 51.5083 681.519 51.425C682.219 51.325 682.794 51.2 683.244 51.05C683.711 50.8833 684.277 50.65 684.944 50.35L685.619 52.425ZM678.919 53.175C678.052 53.175 677.377 53.45 676.894 54C676.427 54.5333 676.194 55.2417 676.194 56.125C676.194 57.025 676.436 57.75 676.919 58.3C677.402 58.8333 678.086 59.1 678.969 59.1C679.869 59.1 680.552 58.8417 681.019 58.325C681.502 57.7917 681.744 57.05 681.744 56.1C681.744 54.15 680.802 53.175 678.919 53.175ZM690.607 65.3C689.757 65.3 689.082 65.05 688.582 64.55C688.099 64.0333 687.857 63.3167 687.857 62.4V46.525L690.157 46.25V62.35C690.157 62.7167 690.216 62.9833 690.332 63.15C690.466 63.3167 690.682 63.4 690.982 63.4C691.299 63.4 691.582 63.35 691.832 63.25L692.432 64.85C691.882 65.15 691.274 65.3 690.607 65.3ZM704.06 61.925C704.06 62.4583 704.151 62.8583 704.335 63.125C704.518 63.375 704.793 63.5667 705.16 63.7L704.635 65.3C703.951 65.2167 703.401 65.025 702.985 64.725C702.568 64.425 702.26 63.9583 702.06 63.325C701.176 64.6417 699.868 65.3 698.135 65.3C696.835 65.3 695.81 64.9333 695.06 64.2C694.31 63.4667 693.935 62.5083 693.935 61.325C693.935 59.925 694.435 58.85 695.435 58.1C696.451 57.35 697.885 56.975 699.735 56.975H701.76V56C701.76 55.0667 701.535 54.4 701.085 54C700.635 53.6 699.943 53.4 699.01 53.4C698.043 53.4 696.86 53.6333 695.46 54.1L694.885 52.425C696.518 51.825 698.035 51.525 699.435 51.525C700.985 51.525 702.143 51.9083 702.91 52.675C703.676 53.425 704.06 54.5 704.06 55.9V61.925ZM698.66 63.575C699.976 63.575 701.01 62.8917 701.76 61.525V58.5H700.035C697.601 58.5 696.385 59.4 696.385 61.2C696.385 61.9833 696.576 62.575 696.96 62.975C697.343 63.375 697.91 63.575 698.66 63.575ZM718.983 46.525V65H716.958L716.733 63.175C716.3 63.8417 715.758 64.3667 715.108 64.75C714.458 65.1167 713.733 65.3 712.933 65.3C711.367 65.3 710.142 64.6833 709.258 63.45C708.392 62.2167 707.958 60.5583 707.958 58.475C707.958 57.125 708.167 55.925 708.583 54.875C709 53.825 709.6 53.0083 710.383 52.425C711.167 51.825 712.083 51.525 713.133 51.525C714.483 51.525 715.667 52.0667 716.683 53.15V46.25L718.983 46.525ZM713.433 63.475C714.133 63.475 714.733 63.3167 715.233 63C715.733 62.6667 716.217 62.175 716.683 61.525V55.075C716.25 54.5083 715.783 54.0833 715.283 53.8C714.8 53.5 714.25 53.35 713.633 53.35C712.617 53.35 711.825 53.775 711.258 54.625C710.708 55.475 710.433 56.7417 710.433 58.425C710.433 60.125 710.692 61.3917 711.208 62.225C711.725 63.0583 712.467 63.475 713.433 63.475ZM733.675 58.025C733.675 58.4083 733.658 58.8 733.625 59.2H725.225C725.325 60.65 725.691 61.7167 726.325 62.4C726.958 63.0833 727.775 63.425 728.775 63.425C729.408 63.425 729.991 63.3333 730.525 63.15C731.058 62.9667 731.616 62.675 732.2 62.275L733.2 63.65C731.8 64.75 730.266 65.3 728.6 65.3C726.766 65.3 725.333 64.7 724.3 63.5C723.283 62.3 722.775 60.65 722.775 58.55C722.775 57.1833 722.991 55.975 723.425 54.925C723.875 53.8583 724.508 53.025 725.325 52.425C726.158 51.825 727.133 51.525 728.25 51.525C730 51.525 731.341 52.1 732.275 53.25C733.208 54.4 733.675 55.9917 733.675 58.025ZM731.4 57.35C731.4 56.05 731.141 55.0583 730.625 54.375C730.108 53.6917 729.333 53.35 728.3 53.35C726.416 53.35 725.391 54.7333 725.225 57.5H731.4V57.35ZM740.923 51.525C741.823 51.525 742.631 51.65 743.348 51.9C744.064 52.15 744.748 52.525 745.398 53.025L744.423 54.475C743.823 54.0917 743.248 53.8083 742.698 53.625C742.164 53.4417 741.598 53.35 740.998 53.35C740.248 53.35 739.656 53.5083 739.223 53.825C738.789 54.125 738.573 54.5417 738.573 55.075C738.573 55.6083 738.773 56.025 739.173 56.325C739.589 56.625 740.331 56.9167 741.398 57.2C742.864 57.5667 743.956 58.0667 744.673 58.7C745.406 59.3333 745.773 60.2 745.773 61.3C745.773 62.6 745.264 63.5917 744.248 64.275C743.248 64.9583 742.023 65.3 740.573 65.3C738.573 65.3 736.914 64.725 735.598 63.575L736.823 62.175C737.939 63.025 739.173 63.45 740.523 63.45C741.389 63.45 742.073 63.275 742.573 62.925C743.089 62.5583 743.348 62.0667 743.348 61.45C743.348 61 743.256 60.6417 743.073 60.375C742.889 60.0917 742.573 59.85 742.123 59.65C741.673 59.4333 741.014 59.2083 740.148 58.975C738.748 58.6083 737.731 58.1167 737.098 57.5C736.481 56.8833 736.173 56.1 736.173 55.15C736.173 54.4667 736.373 53.85 736.773 53.3C737.189 52.7333 737.756 52.3 738.473 52C739.206 51.6833 740.023 51.525 740.923 51.525ZM755.218 51.525C756.418 51.525 757.351 51.8833 758.018 52.6C758.701 53.3167 759.043 54.3 759.043 55.55V65H756.743V55.875C756.743 54.9417 756.559 54.2833 756.193 53.9C755.843 53.5167 755.326 53.325 754.643 53.325C753.959 53.325 753.351 53.525 752.818 53.925C752.284 54.325 751.784 54.8917 751.318 55.625V65H749.018V46.55L751.318 46.3V53.65C752.351 52.2333 753.651 51.525 755.218 51.525ZM596.7 77.25C597.783 77.25 598.742 77.4083 599.575 77.725C600.425 78.0417 601.225 78.5167 601.975 79.15L600.025 81.475C599.508 81.075 599 80.775 598.5 80.575C598 80.375 597.467 80.275 596.9 80.275C595.733 80.275 594.808 80.7667 594.125 81.75C593.458 82.7333 593.125 84.25 593.125 86.3C593.125 88.3167 593.458 89.8167 594.125 90.8C594.808 91.7667 595.75 92.25 596.95 92.25C597.583 92.25 598.158 92.1333 598.675 91.9C599.192 91.65 599.75 91.3 600.35 90.85L602.175 93.2C601.525 93.85 600.733 94.3833 599.8 94.8C598.883 95.2167 597.867 95.425 596.75 95.425C595.15 95.425 593.758 95.075 592.575 94.375C591.392 93.675 590.467 92.6417 589.8 91.275C589.15 89.8917 588.825 88.2333 588.825 86.3C588.825 84.4167 589.158 82.7917 589.825 81.425C590.508 80.0583 591.442 79.025 592.625 78.325C593.825 77.6083 595.183 77.25 596.7 77.25ZM610.546 85.275V83.35H619.946V85.275H610.546ZM610.546 90.1V88.175H619.946V90.1H610.546ZM636.637 77.475C637.671 77.475 638.537 77.6083 639.237 77.875C639.954 78.1417 640.679 78.575 641.412 79.175L640.112 80.7C639.062 79.85 637.954 79.425 636.787 79.425C635.354 79.425 634.196 79.975 633.312 81.075C632.446 82.175 632.012 83.9417 632.012 86.375C632.012 88.7417 632.446 90.4917 633.312 91.625C634.179 92.7417 635.329 93.3 636.762 93.3C637.496 93.3 638.137 93.175 638.687 92.925C639.237 92.675 639.821 92.325 640.437 91.875L641.612 93.375C641.079 93.925 640.396 94.3833 639.562 94.75C638.729 95.1167 637.771 95.3 636.687 95.3C635.287 95.3 634.037 94.9583 632.937 94.275C631.854 93.575 631.004 92.5583 630.387 91.225C629.787 89.875 629.487 88.2583 629.487 86.375C629.487 84.4917 629.804 82.8833 630.437 81.55C631.071 80.2 631.929 79.1833 633.012 78.5C634.096 77.8167 635.304 77.475 636.637 77.475ZM650.432 81.525C651.632 81.525 652.566 81.8833 653.232 82.6C653.916 83.3167 654.257 84.3 654.257 85.55V95H651.957V85.875C651.957 84.9417 651.774 84.2833 651.407 83.9C651.057 83.5167 650.541 83.325 649.857 83.325C649.174 83.325 648.566 83.525 648.032 83.925C647.499 84.325 646.999 84.8917 646.532 85.625V95H644.232V76.55L646.532 76.3V83.65C647.566 82.2333 648.866 81.525 650.432 81.525ZM661.181 81.825V95H658.881V81.825H661.181ZM660.006 75.5C660.489 75.5 660.881 75.65 661.181 75.95C661.481 76.25 661.631 76.625 661.631 77.075C661.631 77.525 661.481 77.9 661.181 78.2C660.881 78.4833 660.489 78.625 660.006 78.625C659.539 78.625 659.156 78.4833 658.856 78.2C658.556 77.9 658.406 77.525 658.406 77.075C658.406 76.625 658.556 76.25 658.856 75.95C659.156 75.65 659.539 75.5 660.006 75.5ZM672.137 81.525C673.337 81.525 674.27 81.8833 674.937 82.6C675.62 83.3167 675.962 84.3 675.962 85.55V95H673.662V85.875C673.662 84.9417 673.487 84.2833 673.137 83.9C672.787 83.5167 672.27 83.325 671.587 83.325C670.887 83.325 670.27 83.525 669.737 83.925C669.203 84.325 668.703 84.9 668.237 85.65V95H665.937V81.825H667.912L668.112 83.775C668.578 83.075 669.153 82.525 669.837 82.125C670.537 81.725 671.303 81.525 672.137 81.525ZM689.46 91.925C689.46 92.4583 689.552 92.8583 689.735 93.125C689.918 93.375 690.193 93.5667 690.56 93.7L690.035 95.3C689.352 95.2167 688.802 95.025 688.385 94.725C687.968 94.425 687.66 93.9583 687.46 93.325C686.577 94.6417 685.268 95.3 683.535 95.3C682.235 95.3 681.21 94.9333 680.46 94.2C679.71 93.4667 679.335 92.5083 679.335 91.325C679.335 89.925 679.835 88.85 680.835 88.1C681.852 87.35 683.285 86.975 685.135 86.975H687.16V86C687.16 85.0667 686.935 84.4 686.485 84C686.035 83.6 685.343 83.4 684.41 83.4C683.443 83.4 682.26 83.6333 680.86 84.1L680.285 82.425C681.918 81.825 683.435 81.525 684.835 81.525C686.385 81.525 687.543 81.9083 688.31 82.675C689.077 83.425 689.46 84.5 689.46 85.9V91.925ZM684.06 93.575C685.377 93.575 686.41 92.8917 687.16 91.525V88.5H685.435C683.002 88.5 681.785 89.4 681.785 91.2C681.785 91.9833 681.977 92.575 682.36 92.975C682.743 93.375 683.31 93.575 684.06 93.575ZM597.125 107.25C599.358 107.25 601.283 107.958 602.9 109.375L600.825 111.55C600.208 111.083 599.633 110.75 599.1 110.55C598.583 110.333 597.983 110.225 597.3 110.225C596.017 110.225 594.992 110.733 594.225 111.75C593.458 112.75 593.075 114.275 593.075 116.325C593.075 118.542 593.367 120.117 593.95 121.05C594.533 121.967 595.442 122.425 596.675 122.425C597.542 122.425 598.325 122.233 599.025 121.85V117.925H596.775L596.375 115.025H603V123.6C602.1 124.183 601.108 124.633 600.025 124.95C598.942 125.267 597.858 125.425 596.775 125.425C594.142 125.425 592.158 124.658 590.825 123.125C589.492 121.575 588.825 119.308 588.825 116.325C588.825 114.425 589.183 112.792 589.9 111.425C590.633 110.058 591.625 109.025 592.875 108.325C594.142 107.608 595.558 107.25 597.125 107.25ZM612.279 115.275V113.35H621.679V115.275H612.279ZM612.279 120.1V118.175H621.679V120.1H612.279ZM638.696 107.475C639.779 107.475 640.712 107.633 641.496 107.95C642.296 108.25 643.087 108.725 643.871 109.375L642.471 110.825C641.854 110.325 641.262 109.967 640.696 109.75C640.129 109.533 639.462 109.425 638.696 109.425C637.812 109.425 636.996 109.667 636.246 110.15C635.512 110.617 634.912 111.375 634.446 112.425C633.979 113.458 633.746 114.775 633.746 116.375C633.746 118.792 634.137 120.558 634.921 121.675C635.721 122.792 636.896 123.35 638.446 123.35C639.712 123.35 640.804 123.092 641.721 122.575V117.375H638.671L638.396 115.45H644.071V123.775C642.287 124.792 640.412 125.3 638.446 125.3C636.179 125.3 634.404 124.542 633.121 123.025C631.854 121.508 631.221 119.292 631.221 116.375C631.221 114.508 631.554 112.908 632.221 111.575C632.904 110.225 633.812 109.208 634.946 108.525C636.096 107.825 637.346 107.475 638.696 107.475ZM653.717 111.525C654.184 111.525 654.617 111.575 655.017 111.675L654.592 113.925C654.192 113.825 653.809 113.775 653.442 113.775C652.626 113.775 651.967 114.075 651.467 114.675C650.967 115.275 650.576 116.208 650.292 117.475V125H647.992V111.825H649.967L650.192 114.5C650.542 113.517 651.017 112.775 651.617 112.275C652.217 111.775 652.917 111.525 653.717 111.525ZM666.829 118.025C666.829 118.408 666.812 118.8 666.779 119.2H658.379C658.479 120.65 658.846 121.717 659.479 122.4C660.112 123.083 660.929 123.425 661.929 123.425C662.562 123.425 663.146 123.333 663.679 123.15C664.212 122.967 664.771 122.675 665.354 122.275L666.354 123.65C664.954 124.75 663.421 125.3 661.754 125.3C659.921 125.3 658.487 124.7 657.454 123.5C656.437 122.3 655.929 120.65 655.929 118.55C655.929 117.183 656.146 115.975 656.579 114.925C657.029 113.858 657.662 113.025 658.479 112.425C659.312 111.825 660.287 111.525 661.404 111.525C663.154 111.525 664.496 112.1 665.429 113.25C666.362 114.4 666.829 115.992 666.829 118.025ZM664.554 117.35C664.554 116.05 664.296 115.058 663.779 114.375C663.262 113.692 662.487 113.35 661.454 113.35C659.571 113.35 658.546 114.733 658.379 117.5H664.554V117.35ZM680.452 118.025C680.452 118.408 680.435 118.8 680.402 119.2H672.002C672.102 120.65 672.469 121.717 673.102 122.4C673.735 123.083 674.552 123.425 675.552 123.425C676.185 123.425 676.769 123.333 677.302 123.15C677.835 122.967 678.394 122.675 678.977 122.275L679.977 123.65C678.577 124.75 677.044 125.3 675.377 125.3C673.544 125.3 672.11 124.7 671.077 123.5C670.06 122.3 669.552 120.65 669.552 118.55C669.552 117.183 669.769 115.975 670.202 114.925C670.652 113.858 671.285 113.025 672.102 112.425C672.935 111.825 673.91 111.525 675.027 111.525C676.777 111.525 678.119 112.1 679.052 113.25C679.985 114.4 680.452 115.992 680.452 118.025ZM678.177 117.35C678.177 116.05 677.919 115.058 677.402 114.375C676.885 113.692 676.11 113.35 675.077 113.35C673.194 113.35 672.169 114.733 672.002 117.5H678.177V117.35ZM690.325 111.525C691.525 111.525 692.458 111.883 693.125 112.6C693.808 113.317 694.15 114.3 694.15 115.55V125H691.85V115.875C691.85 114.942 691.675 114.283 691.325 113.9C690.975 113.517 690.458 113.325 689.775 113.325C689.075 113.325 688.458 113.525 687.925 113.925C687.392 114.325 686.892 114.9 686.425 115.65V125H684.125V111.825H686.1L686.3 113.775C686.767 113.075 687.342 112.525 688.025 112.125C688.725 111.725 689.492 111.525 690.325 111.525ZM701.398 125.3C700.548 125.3 699.873 125.05 699.373 124.55C698.89 124.033 698.648 123.317 698.648 122.4V106.525L700.948 106.25V122.35C700.948 122.717 701.007 122.983 701.123 123.15C701.257 123.317 701.473 123.4 701.773 123.4C702.09 123.4 702.373 123.35 702.623 123.25L703.223 124.85C702.673 125.15 702.065 125.3 701.398 125.3ZM714.851 121.925C714.851 122.458 714.942 122.858 715.126 123.125C715.309 123.375 715.584 123.567 715.951 123.7L715.426 125.3C714.742 125.217 714.192 125.025 713.776 124.725C713.359 124.425 713.051 123.958 712.851 123.325C711.967 124.642 710.659 125.3 708.926 125.3C707.626 125.3 706.601 124.933 705.851 124.2C705.101 123.467 704.726 122.508 704.726 121.325C704.726 119.925 705.226 118.85 706.226 118.1C707.242 117.35 708.676 116.975 710.526 116.975H712.551V116C712.551 115.067 712.326 114.4 711.876 114C711.426 113.6 710.734 113.4 709.801 113.4C708.834 113.4 707.651 113.633 706.251 114.1L705.676 112.425C707.309 111.825 708.826 111.525 710.226 111.525C711.776 111.525 712.934 111.908 713.701 112.675C714.467 113.425 714.851 114.5 714.851 115.9V121.925ZM709.451 123.575C710.767 123.575 711.801 122.892 712.551 121.525V118.5H710.826C708.392 118.5 707.176 119.4 707.176 121.2C707.176 121.983 707.367 122.575 707.751 122.975C708.134 123.375 708.701 123.575 709.451 123.575ZM725.774 111.525C726.974 111.525 727.908 111.883 728.574 112.6C729.258 113.317 729.599 114.3 729.599 115.55V125H727.299V115.875C727.299 114.942 727.124 114.283 726.774 113.9C726.424 113.517 725.908 113.325 725.224 113.325C724.524 113.325 723.908 113.525 723.374 113.925C722.841 114.325 722.341 114.9 721.874 115.65V125H719.574V111.825H721.549L721.749 113.775C722.216 113.075 722.791 112.525 723.474 112.125C724.174 111.725 724.941 111.525 725.774 111.525ZM744.423 106.525V125H742.398L742.173 123.175C741.739 123.842 741.198 124.367 740.548 124.75C739.898 125.117 739.173 125.3 738.373 125.3C736.806 125.3 735.581 124.683 734.698 123.45C733.831 122.217 733.398 120.558 733.398 118.475C733.398 117.125 733.606 115.925 734.023 114.875C734.439 113.825 735.039 113.008 735.823 112.425C736.606 111.825 737.523 111.525 738.573 111.525C739.923 111.525 741.106 112.067 742.123 113.15V106.25L744.423 106.525ZM738.873 123.475C739.573 123.475 740.173 123.317 740.673 123C741.173 122.667 741.656 122.175 742.123 121.525V115.075C741.689 114.508 741.223 114.083 740.723 113.8C740.239 113.5 739.689 113.35 739.073 113.35C738.056 113.35 737.264 113.775 736.698 114.625C736.148 115.475 735.873 116.742 735.873 118.425C735.873 120.125 736.131 121.392 736.648 122.225C737.164 123.058 737.906 123.475 738.873 123.475ZM593.725 137.675V155H589.625V137.675H593.725ZM603.49 145.275V143.35H612.89V145.275H603.49ZM603.49 150.1V148.175H612.89V150.1H603.49ZM625.932 137.775V155H623.557V137.775H625.932ZM637.005 141.525C638.205 141.525 639.138 141.883 639.805 142.6C640.488 143.317 640.83 144.3 640.83 145.55V155H638.53V145.875C638.53 144.942 638.355 144.283 638.005 143.9C637.655 143.517 637.138 143.325 636.455 143.325C635.755 143.325 635.138 143.525 634.605 143.925C634.071 144.325 633.571 144.9 633.105 145.65V155H630.805V141.825H632.78L632.98 143.775C633.446 143.075 634.021 142.525 634.705 142.125C635.405 141.725 636.171 141.525 637.005 141.525ZM655.653 136.525V155H653.628L653.403 153.175C652.97 153.842 652.428 154.367 651.778 154.75C651.128 155.117 650.403 155.3 649.603 155.3C648.036 155.3 646.811 154.683 645.928 153.45C645.061 152.217 644.628 150.558 644.628 148.475C644.628 147.125 644.836 145.925 645.253 144.875C645.67 143.825 646.27 143.008 647.053 142.425C647.836 141.825 648.753 141.525 649.803 141.525C651.153 141.525 652.336 142.067 653.353 143.15V136.25L655.653 136.525ZM650.103 153.475C650.803 153.475 651.403 153.317 651.903 153C652.403 152.667 652.886 152.175 653.353 151.525V145.075C652.92 144.508 652.453 144.083 651.953 143.8C651.47 143.5 650.92 143.35 650.303 143.35C649.286 143.35 648.495 143.775 647.928 144.625C647.378 145.475 647.103 146.742 647.103 148.425C647.103 150.125 647.361 151.392 647.878 152.225C648.395 153.058 649.136 153.475 650.103 153.475ZM662.695 141.825V155H660.395V141.825H662.695ZM661.52 135.5C662.003 135.5 662.395 135.65 662.695 135.95C662.995 136.25 663.145 136.625 663.145 137.075C663.145 137.525 662.995 137.9 662.695 138.2C662.395 138.483 662.003 138.625 661.52 138.625C661.053 138.625 660.67 138.483 660.37 138.2C660.07 137.9 659.92 137.525 659.92 137.075C659.92 136.625 660.07 136.25 660.37 135.95C660.67 135.65 661.053 135.5 661.52 135.5ZM676.325 151.925C676.325 152.458 676.417 152.858 676.6 153.125C676.784 153.375 677.059 153.567 677.425 153.7L676.9 155.3C676.217 155.217 675.667 155.025 675.25 154.725C674.834 154.425 674.525 153.958 674.325 153.325C673.442 154.642 672.134 155.3 670.4 155.3C669.1 155.3 668.075 154.933 667.325 154.2C666.575 153.467 666.2 152.508 666.2 151.325C666.2 149.925 666.7 148.85 667.7 148.1C668.717 147.35 670.15 146.975 672 146.975H674.025V146C674.025 145.067 673.8 144.4 673.35 144C672.9 143.6 672.209 143.4 671.275 143.4C670.309 143.4 669.125 143.633 667.725 144.1L667.15 142.425C668.784 141.825 670.3 141.525 671.7 141.525C673.25 141.525 674.409 141.908 675.175 142.675C675.942 143.425 676.325 144.5 676.325 145.9V151.925ZM670.925 153.575C672.242 153.575 673.275 152.892 674.025 151.525V148.5H672.3C669.867 148.5 668.65 149.4 668.65 151.2C668.65 151.983 668.842 152.575 669.225 152.975C669.609 153.375 670.175 153.575 670.925 153.575ZM593.725 167.675V185H589.625V167.675H593.725ZM610.299 185H605.074L600.074 171.575C600.241 172.892 600.366 174.058 600.449 175.075C600.549 176.075 600.599 177.267 600.599 178.65V185H596.949V167.675H602.049L607.174 181.125C606.808 178.842 606.624 176.692 606.624 174.675V167.675H610.299V185ZM618.351 167.675C621.068 167.675 623.243 168.292 624.876 169.525C626.526 170.742 627.351 172.983 627.351 176.25C627.351 179.467 626.551 181.733 624.951 183.05C623.351 184.35 621.276 185 618.726 185H613.526V167.675H618.351ZM617.626 170.65V182.025H618.976C620.326 182.025 621.351 181.608 622.051 180.775C622.751 179.925 623.101 178.417 623.101 176.25C623.101 174.767 622.926 173.617 622.576 172.8C622.226 171.983 621.751 171.425 621.151 171.125C620.551 170.808 619.81 170.65 618.926 170.65H617.626ZM636.352 175.275V173.35H645.752V175.275H636.352ZM636.352 180.1V178.175H645.752V180.1H636.352ZM658.793 167.775V185H656.418V167.775H658.793ZM669.866 171.525C671.066 171.525 671.999 171.883 672.666 172.6C673.349 173.317 673.691 174.3 673.691 175.55V185H671.391V175.875C671.391 174.942 671.216 174.283 670.866 173.9C670.516 173.517 669.999 173.325 669.316 173.325C668.616 173.325 667.999 173.525 667.466 173.925C666.933 174.325 666.433 174.9 665.966 175.65V185H663.666V171.825H665.641L665.841 173.775C666.308 173.075 666.883 172.525 667.566 172.125C668.266 171.725 669.033 171.525 669.866 171.525ZM688.514 166.525V185H686.489L686.264 183.175C685.831 183.842 685.289 184.367 684.639 184.75C683.989 185.117 683.264 185.3 682.464 185.3C680.898 185.3 679.673 184.683 678.789 183.45C677.923 182.217 677.489 180.558 677.489 178.475C677.489 177.125 677.698 175.925 678.114 174.875C678.531 173.825 679.131 173.008 679.914 172.425C680.698 171.825 681.614 171.525 682.664 171.525C684.014 171.525 685.198 172.067 686.214 173.15V166.25L688.514 166.525ZM682.964 183.475C683.664 183.475 684.264 183.317 684.764 183C685.264 182.667 685.748 182.175 686.214 181.525V175.075C685.781 174.508 685.314 174.083 684.814 173.8C684.331 173.5 683.781 173.35 683.164 173.35C682.148 173.35 681.356 173.775 680.789 174.625C680.239 175.475 679.964 176.742 679.964 178.425C679.964 180.125 680.223 181.392 680.739 182.225C681.256 183.058 681.998 183.475 682.964 183.475ZM698.206 171.525C700.056 171.525 701.489 172.142 702.506 173.375C703.539 174.608 704.056 176.283 704.056 178.4C704.056 179.767 703.823 180.975 703.356 182.025C702.889 183.058 702.214 183.867 701.331 184.45C700.448 185.017 699.398 185.3 698.181 185.3C696.331 185.3 694.889 184.683 693.856 183.45C692.823 182.217 692.306 180.542 692.306 178.425C692.306 177.058 692.539 175.858 693.006 174.825C693.473 173.775 694.148 172.967 695.031 172.4C695.914 171.817 696.973 171.525 698.206 171.525ZM698.206 173.375C695.923 173.375 694.781 175.058 694.781 178.425C694.781 181.775 695.914 183.45 698.181 183.45C700.448 183.45 701.581 181.767 701.581 178.4C701.581 175.05 700.456 173.375 698.206 173.375ZM714.055 171.525C715.255 171.525 716.189 171.883 716.855 172.6C717.539 173.317 717.88 174.3 717.88 175.55V185H715.58V175.875C715.58 174.942 715.405 174.283 715.055 173.9C714.705 173.517 714.189 173.325 713.505 173.325C712.805 173.325 712.189 173.525 711.655 173.925C711.122 174.325 710.622 174.9 710.155 175.65V185H707.855V171.825H709.83L710.03 173.775C710.497 173.075 711.072 172.525 711.755 172.125C712.455 171.725 713.222 171.525 714.055 171.525ZM732.454 178.025C732.454 178.408 732.437 178.8 732.404 179.2H724.004C724.104 180.65 724.471 181.717 725.104 182.4C725.737 183.083 726.554 183.425 727.554 183.425C728.187 183.425 728.771 183.333 729.304 183.15C729.837 182.967 730.396 182.675 730.979 182.275L731.979 183.65C730.579 184.75 729.046 185.3 727.379 185.3C725.546 185.3 724.112 184.7 723.079 183.5C722.062 182.3 721.554 180.65 721.554 178.55C721.554 177.183 721.771 175.975 722.204 174.925C722.654 173.858 723.287 173.025 724.104 172.425C724.937 171.825 725.912 171.525 727.029 171.525C728.779 171.525 730.121 172.1 731.054 173.25C731.987 174.4 732.454 175.992 732.454 178.025ZM730.179 177.35C730.179 176.05 729.921 175.058 729.404 174.375C728.887 173.692 728.112 173.35 727.079 173.35C725.196 173.35 724.171 174.733 724.004 177.5H730.179V177.35ZM739.702 171.525C740.602 171.525 741.41 171.65 742.127 171.9C742.844 172.15 743.527 172.525 744.177 173.025L743.202 174.475C742.602 174.092 742.027 173.808 741.477 173.625C740.944 173.442 740.377 173.35 739.777 173.35C739.027 173.35 738.435 173.508 738.002 173.825C737.569 174.125 737.352 174.542 737.352 175.075C737.352 175.608 737.552 176.025 737.952 176.325C738.369 176.625 739.11 176.917 740.177 177.2C741.644 177.567 742.735 178.067 743.452 178.7C744.185 179.333 744.552 180.2 744.552 181.3C744.552 182.6 744.044 183.592 743.027 184.275C742.027 184.958 740.802 185.3 739.352 185.3C737.352 185.3 735.694 184.725 734.377 183.575L735.602 182.175C736.719 183.025 737.952 183.45 739.302 183.45C740.169 183.45 740.852 183.275 741.352 182.925C741.869 182.558 742.127 182.067 742.127 181.45C742.127 181 742.035 180.642 741.852 180.375C741.669 180.092 741.352 179.85 740.902 179.65C740.452 179.433 739.794 179.208 738.927 178.975C737.527 178.608 736.51 178.117 735.877 177.5C735.26 176.883 734.952 176.1 734.952 175.15C734.952 174.467 735.152 173.85 735.552 173.3C735.969 172.733 736.535 172.3 737.252 172C737.985 171.683 738.802 171.525 739.702 171.525ZM750.097 171.825V185H747.797V171.825H750.097ZM748.922 165.5C749.405 165.5 749.797 165.65 750.097 165.95C750.397 166.25 750.547 166.625 750.547 167.075C750.547 167.525 750.397 167.9 750.097 168.2C749.797 168.483 749.405 168.625 748.922 168.625C748.455 168.625 748.072 168.483 747.772 168.2C747.472 167.9 747.322 167.525 747.322 167.075C747.322 166.625 747.472 166.25 747.772 165.95C748.072 165.65 748.455 165.5 748.922 165.5ZM763.728 181.925C763.728 182.458 763.819 182.858 764.003 183.125C764.186 183.375 764.461 183.567 764.828 183.7L764.303 185.3C763.619 185.217 763.069 185.025 762.653 184.725C762.236 184.425 761.928 183.958 761.728 183.325C760.844 184.642 759.536 185.3 757.803 185.3C756.503 185.3 755.478 184.933 754.728 184.2C753.978 183.467 753.603 182.508 753.603 181.325C753.603 179.925 754.103 178.85 755.103 178.1C756.119 177.35 757.553 176.975 759.403 176.975H761.428V176C761.428 175.067 761.203 174.4 760.753 174C760.303 173.6 759.611 173.4 758.678 173.4C757.711 173.4 756.528 173.633 755.128 174.1L754.553 172.425C756.186 171.825 757.703 171.525 759.103 171.525C760.653 171.525 761.811 171.908 762.578 172.675C763.344 173.425 763.728 174.5 763.728 175.9V181.925ZM758.328 183.575C759.644 183.575 760.678 182.892 761.428 181.525V178.5H759.703C757.269 178.5 756.053 179.4 756.053 181.2C756.053 181.983 756.244 182.575 756.628 182.975C757.011 183.375 757.578 183.575 758.328 183.575ZM593.725 197.675V215H589.625V197.675H593.725ZM603.675 197.675L598.15 205.45L604.125 215H599.375L593.85 205.75L599.35 197.675H603.675ZM611.987 205.275V203.35H621.387V205.275H611.987ZM611.987 210.1V208.175H621.387V210.1H611.987ZM634.428 197.775V215H632.053V197.775H634.428ZM643.803 197.775L637.278 205.65L644.278 215H641.353L634.553 205.8L641.103 197.775H643.803ZM656.258 208.025C656.258 208.408 656.241 208.8 656.208 209.2H647.808C647.908 210.65 648.274 211.717 648.908 212.4C649.541 213.083 650.358 213.425 651.358 213.425C651.991 213.425 652.574 213.333 653.108 213.15C653.641 212.967 654.199 212.675 654.783 212.275L655.783 213.65C654.383 214.75 652.849 215.3 651.183 215.3C649.349 215.3 647.916 214.7 646.883 213.5C645.866 212.3 645.358 210.65 645.358 208.55C645.358 207.183 645.574 205.975 646.008 204.925C646.458 203.858 647.091 203.025 647.908 202.425C648.741 201.825 649.716 201.525 650.833 201.525C652.583 201.525 653.924 202.1 654.858 203.25C655.791 204.4 656.258 205.992 656.258 208.025ZM653.983 207.35C653.983 206.05 653.724 205.058 653.208 204.375C652.691 203.692 651.916 203.35 650.883 203.35C648.999 203.35 647.974 204.733 647.808 207.5H653.983V207.35ZM666.131 201.525C667.331 201.525 668.264 201.883 668.931 202.6C669.614 203.317 669.956 204.3 669.956 205.55V215H667.656V205.875C667.656 204.942 667.481 204.283 667.131 203.9C666.781 203.517 666.264 203.325 665.581 203.325C664.881 203.325 664.264 203.525 663.731 203.925C663.197 204.325 662.697 204.9 662.231 205.65V215H659.931V201.825H661.906L662.106 203.775C662.572 203.075 663.147 202.525 663.831 202.125C664.531 201.725 665.297 201.525 666.131 201.525ZM679.683 215.075C679.167 216.608 678.442 217.817 677.508 218.7C676.592 219.6 675.275 220.142 673.558 220.325L673.308 218.525C674.175 218.375 674.867 218.158 675.383 217.875C675.9 217.592 676.308 217.225 676.608 216.775C676.925 216.342 677.217 215.75 677.483 215H676.708L672.283 201.825H674.733L678.258 213.325L681.708 201.825H684.083L679.683 215.075ZM695.197 211.925C695.197 212.458 695.289 212.858 695.472 213.125C695.656 213.375 695.931 213.567 696.297 213.7L695.772 215.3C695.089 215.217 694.539 215.025 694.122 214.725C693.706 214.425 693.397 213.958 693.197 213.325C692.314 214.642 691.006 215.3 689.272 215.3C687.972 215.3 686.947 214.933 686.197 214.2C685.447 213.467 685.072 212.508 685.072 211.325C685.072 209.925 685.572 208.85 686.572 208.1C687.589 207.35 689.022 206.975 690.872 206.975H692.897V206C692.897 205.067 692.672 204.4 692.222 204C691.772 203.6 691.081 203.4 690.147 203.4C689.181 203.4 687.997 203.633 686.597 204.1L686.022 202.425C687.656 201.825 689.172 201.525 690.572 201.525C692.122 201.525 693.281 201.908 694.047 202.675C694.814 203.425 695.197 204.5 695.197 205.9V211.925ZM689.797 213.575C691.114 213.575 692.147 212.892 692.897 211.525V208.5H691.172C688.739 208.5 687.522 209.4 687.522 211.2C687.522 211.983 687.714 212.575 688.097 212.975C688.481 213.375 689.047 213.575 689.797 213.575ZM595.2 227.25C596.5 227.25 597.625 227.433 598.575 227.8C599.542 228.167 600.417 228.725 601.2 229.475L599.3 231.7C598.117 230.733 596.85 230.25 595.5 230.25C594.783 230.25 594.217 230.4 593.8 230.7C593.383 230.983 593.175 231.4 593.175 231.95C593.175 232.333 593.267 232.65 593.45 232.9C593.633 233.133 593.958 233.358 594.425 233.575C594.892 233.792 595.592 234.05 596.525 234.35C598.292 234.917 599.592 235.617 600.425 236.45C601.258 237.267 601.675 238.433 601.675 239.95C601.675 241.033 601.4 241.992 600.85 242.825C600.3 243.642 599.508 244.283 598.475 244.75C597.442 245.2 596.217 245.425 594.8 245.425C593.383 245.425 592.125 245.2 591.025 244.75C589.942 244.3 589.008 243.7 588.225 242.95L590.3 240.675C590.967 241.242 591.65 241.667 592.35 241.95C593.067 242.233 593.842 242.375 594.675 242.375C595.525 242.375 596.192 242.192 596.675 241.825C597.175 241.442 597.425 240.917 597.425 240.25C597.425 239.817 597.333 239.458 597.15 239.175C596.967 238.875 596.65 238.608 596.2 238.375C595.75 238.142 595.1 237.892 594.25 237.625C592.333 237.042 590.967 236.325 590.15 235.475C589.35 234.625 588.95 233.55 588.95 232.25C588.95 231.25 589.217 230.375 589.75 229.625C590.283 228.858 591.025 228.275 591.975 227.875C592.925 227.458 594 227.25 595.2 227.25ZM608.032 227.675V241.75H614.782L614.357 245H603.932V227.675H608.032ZM623.29 235.275V233.35H632.69V235.275H623.29ZM623.29 240.1V238.175H632.69V240.1H623.29ZM647.606 227.475C648.756 227.475 649.74 227.642 650.556 227.975C651.373 228.292 652.165 228.792 652.931 229.475L651.631 230.925C650.981 230.408 650.34 230.033 649.706 229.8C649.09 229.55 648.423 229.425 647.706 229.425C646.806 229.425 646.065 229.633 645.481 230.05C644.898 230.467 644.606 231.075 644.606 231.875C644.606 232.375 644.706 232.8 644.906 233.15C645.106 233.483 645.473 233.792 646.006 234.075C646.556 234.358 647.348 234.658 648.381 234.975C649.465 235.308 650.365 235.667 651.081 236.05C651.798 236.433 652.373 236.967 652.806 237.65C653.256 238.317 653.481 239.167 653.481 240.2C653.481 241.2 653.231 242.083 652.731 242.85C652.248 243.617 651.54 244.217 650.606 244.65C649.69 245.083 648.598 245.3 647.331 245.3C644.948 245.3 642.998 244.558 641.481 243.075L642.781 241.625C643.481 242.192 644.19 242.625 644.906 242.925C645.623 243.208 646.423 243.35 647.306 243.35C648.373 243.35 649.256 243.092 649.956 242.575C650.656 242.042 651.006 241.275 651.006 240.275C651.006 239.708 650.898 239.242 650.681 238.875C650.465 238.492 650.09 238.15 649.556 237.85C649.04 237.55 648.281 237.25 647.281 236.95C645.515 236.417 644.223 235.775 643.406 235.025C642.59 234.275 642.181 233.258 642.181 231.975C642.181 231.108 642.406 230.333 642.856 229.65C643.323 228.967 643.965 228.433 644.781 228.05C645.615 227.667 646.556 227.475 647.606 227.475ZM662.579 231.525C663.046 231.525 663.479 231.575 663.879 231.675L663.454 233.925C663.054 233.825 662.671 233.775 662.304 233.775C661.488 233.775 660.829 234.075 660.329 234.675C659.829 235.275 659.438 236.208 659.154 237.475V245H656.854V231.825H658.829L659.054 234.5C659.404 233.517 659.879 232.775 660.479 232.275C661.079 231.775 661.779 231.525 662.579 231.525ZM668.798 231.825V245H666.498V231.825H668.798ZM667.623 225.5C668.106 225.5 668.498 225.65 668.798 225.95C669.098 226.25 669.248 226.625 669.248 227.075C669.248 227.525 669.098 227.9 668.798 228.2C668.498 228.483 668.106 228.625 667.623 228.625C667.156 228.625 666.773 228.483 666.473 228.2C666.173 227.9 666.023 227.525 666.023 227.075C666.023 226.625 666.173 226.25 666.473 225.95C666.773 225.65 667.156 225.5 667.623 225.5ZM682.67 227.775V242.925H689.745L689.47 245H680.295V227.775H682.67ZM701.252 241.925C701.252 242.458 701.344 242.858 701.527 243.125C701.71 243.375 701.985 243.567 702.352 243.7L701.827 245.3C701.144 245.217 700.594 245.025 700.177 244.725C699.76 244.425 699.452 243.958 699.252 243.325C698.369 244.642 697.06 245.3 695.327 245.3C694.027 245.3 693.002 244.933 692.252 244.2C691.502 243.467 691.127 242.508 691.127 241.325C691.127 239.925 691.627 238.85 692.627 238.1C693.644 237.35 695.077 236.975 696.927 236.975H698.952V236C698.952 235.067 698.727 234.4 698.277 234C697.827 233.6 697.135 233.4 696.202 233.4C695.235 233.4 694.052 233.633 692.652 234.1L692.077 232.425C693.71 231.825 695.227 231.525 696.627 231.525C698.177 231.525 699.335 231.908 700.102 232.675C700.869 233.425 701.252 234.5 701.252 235.9V241.925ZM695.852 243.575C697.169 243.575 698.202 242.892 698.952 241.525V238.5H697.227C694.794 238.5 693.577 239.4 693.577 241.2C693.577 241.983 693.769 242.575 694.152 242.975C694.535 243.375 695.102 243.575 695.852 243.575ZM712.176 231.525C713.376 231.525 714.309 231.883 714.976 232.6C715.659 233.317 716.001 234.3 716.001 235.55V245H713.701V235.875C713.701 234.942 713.526 234.283 713.176 233.9C712.826 233.517 712.309 233.325 711.626 233.325C710.926 233.325 710.309 233.525 709.776 233.925C709.242 234.325 708.742 234.9 708.276 235.65V245H705.976V231.825H707.951L708.151 233.775C708.617 233.075 709.192 232.525 709.876 232.125C710.576 231.725 711.342 231.525 712.176 231.525ZM722.924 226.25V245H720.624V226.525L722.924 226.25ZM730.499 231.825L725.649 237.65L731.049 245H728.299L723.074 237.8L727.924 231.825H730.499ZM741.926 241.925C741.926 242.458 742.017 242.858 742.201 243.125C742.384 243.375 742.659 243.567 743.026 243.7L742.501 245.3C741.817 245.217 741.267 245.025 740.851 244.725C740.434 244.425 740.126 243.958 739.926 243.325C739.042 244.642 737.734 245.3 736.001 245.3C734.701 245.3 733.676 244.933 732.926 244.2C732.176 243.467 731.801 242.508 731.801 241.325C731.801 239.925 732.301 238.85 733.301 238.1C734.317 237.35 735.751 236.975 737.601 236.975H739.626V236C739.626 235.067 739.401 234.4 738.951 234C738.501 233.6 737.809 233.4 736.876 233.4C735.909 233.4 734.726 233.633 733.326 234.1L732.751 232.425C734.384 231.825 735.901 231.525 737.301 231.525C738.851 231.525 740.009 231.908 740.776 232.675C741.542 233.425 741.926 234.5 741.926 235.9V241.925ZM736.526 243.575C737.842 243.575 738.876 242.892 739.626 241.525V238.5H737.901C735.467 238.5 734.251 239.4 734.251 241.2C734.251 241.983 734.442 242.575 734.826 242.975C735.209 243.375 735.776 243.575 736.526 243.575ZM602.9 269.25C602.9 270.433 602.642 271.492 602.125 272.425C601.625 273.358 600.867 274.092 599.85 274.625C598.833 275.158 597.592 275.425 596.125 275.425C593.925 275.425 592.25 274.867 591.1 273.75C589.95 272.633 589.375 271.133 589.375 269.25V257.675H593.475V269.075C593.475 270.192 593.683 271.025 594.1 271.575C594.533 272.108 595.208 272.375 596.125 272.375C597.058 272.375 597.733 272.108 598.15 271.575C598.583 271.025 598.8 270.192 598.8 269.075V257.675H602.9V269.25ZM610.009 257.675V275H605.909V257.675H610.009ZM619.959 257.675L614.434 265.45L620.409 275H615.659L610.134 265.75L615.634 257.675H619.959ZM628.271 265.275V263.35H637.671V265.275H628.271ZM628.271 270.1V268.175H637.671V270.1H628.271ZM660.137 269.475C660.137 270.625 659.895 271.642 659.412 272.525C658.945 273.392 658.254 274.075 657.337 274.575C656.437 275.058 655.354 275.3 654.087 275.3C652.17 275.3 650.687 274.775 649.637 273.725C648.604 272.658 648.087 271.242 648.087 269.475V257.775H650.462V269.3C650.462 270.633 650.762 271.633 651.362 272.3C651.962 272.967 652.87 273.3 654.087 273.3C655.32 273.3 656.237 272.975 656.837 272.325C657.437 271.658 657.737 270.65 657.737 269.3V257.775H660.137V269.475ZM670.965 261.525C672.165 261.525 673.098 261.883 673.765 262.6C674.448 263.317 674.79 264.3 674.79 265.55V275H672.49V265.875C672.49 264.942 672.315 264.283 671.965 263.9C671.615 263.517 671.098 263.325 670.415 263.325C669.715 263.325 669.098 263.525 668.565 263.925C668.031 264.325 667.531 264.9 667.065 265.65V275H664.765V261.825H666.74L666.94 263.775C667.406 263.075 667.981 262.525 668.665 262.125C669.365 261.725 670.131 261.525 670.965 261.525ZM681.713 261.825V275H679.413V261.825H681.713ZM680.538 255.5C681.021 255.5 681.413 255.65 681.713 255.95C682.013 256.25 682.163 256.625 682.163 257.075C682.163 257.525 682.013 257.9 681.713 258.2C681.413 258.483 681.021 258.625 680.538 258.625C680.071 258.625 679.688 258.483 679.388 258.2C679.088 257.9 678.938 257.525 678.938 257.075C678.938 256.625 679.088 256.25 679.388 255.95C679.688 255.65 680.071 255.5 680.538 255.5ZM693.119 274.4C692.252 275 691.269 275.3 690.169 275.3C689.052 275.3 688.177 274.983 687.544 274.35C686.927 273.7 686.619 272.767 686.619 271.55V263.6H684.319V261.825H686.619V258.85L688.919 258.575V261.825H692.044L691.794 263.6H688.919V271.45C688.919 272.133 689.035 272.633 689.269 272.95C689.519 273.25 689.927 273.4 690.494 273.4C691.01 273.4 691.594 273.225 692.244 272.875L693.119 274.4ZM705.086 268.025C705.086 268.408 705.069 268.8 705.036 269.2H696.636C696.736 270.65 697.102 271.717 697.736 272.4C698.369 273.083 699.186 273.425 700.186 273.425C700.819 273.425 701.402 273.333 701.936 273.15C702.469 272.967 703.027 272.675 703.611 272.275L704.611 273.65C703.211 274.75 701.677 275.3 700.011 275.3C698.177 275.3 696.744 274.7 695.711 273.5C694.694 272.3 694.186 270.65 694.186 268.55C694.186 267.183 694.402 265.975 694.836 264.925C695.286 263.858 695.919 263.025 696.736 262.425C697.569 261.825 698.544 261.525 699.661 261.525C701.411 261.525 702.752 262.1 703.686 263.25C704.619 264.4 705.086 265.992 705.086 268.025ZM702.811 267.35C702.811 266.05 702.552 265.058 702.036 264.375C701.519 263.692 700.744 263.35 699.711 263.35C697.827 263.35 696.802 264.733 696.636 267.5H702.811V267.35ZM718.959 256.525V275H716.934L716.709 273.175C716.275 273.842 715.734 274.367 715.084 274.75C714.434 275.117 713.709 275.3 712.909 275.3C711.342 275.3 710.117 274.683 709.234 273.45C708.367 272.217 707.934 270.558 707.934 268.475C707.934 267.125 708.142 265.925 708.559 264.875C708.975 263.825 709.575 263.008 710.359 262.425C711.142 261.825 712.059 261.525 713.109 261.525C714.459 261.525 715.642 262.067 716.659 263.15V256.25L718.959 256.525ZM713.409 273.475C714.109 273.475 714.709 273.317 715.209 273C715.709 272.667 716.192 272.175 716.659 271.525V265.075C716.225 264.508 715.759 264.083 715.259 263.8C714.775 263.5 714.225 263.35 713.609 263.35C712.592 263.35 711.8 263.775 711.234 264.625C710.684 265.475 710.409 266.742 710.409 268.425C710.409 270.125 710.667 271.392 711.184 272.225C711.7 273.058 712.442 273.475 713.409 273.475ZM732.816 257.775V275H730.441V257.775H732.816ZM742.191 257.775L735.666 265.65L742.666 275H739.741L732.941 265.8L739.491 257.775H742.191ZM747.338 261.825V275H745.038V261.825H747.338ZM746.163 255.5C746.646 255.5 747.038 255.65 747.338 255.95C747.638 256.25 747.788 256.625 747.788 257.075C747.788 257.525 747.638 257.9 747.338 258.2C747.038 258.483 746.646 258.625 746.163 258.625C745.696 258.625 745.313 258.483 745.013 258.2C744.713 257.9 744.563 257.525 744.563 257.075C744.563 256.625 744.713 256.25 745.013 255.95C745.313 255.65 745.696 255.5 746.163 255.5ZM758.294 261.525C759.494 261.525 760.427 261.883 761.094 262.6C761.777 263.317 762.119 264.3 762.119 265.55V275H759.819V265.875C759.819 264.942 759.644 264.283 759.294 263.9C758.944 263.517 758.427 263.325 757.744 263.325C757.044 263.325 756.427 263.525 755.894 263.925C755.36 264.325 754.86 264.9 754.394 265.65V275H752.094V261.825H754.069L754.269 263.775C754.735 263.075 755.31 262.525 755.994 262.125C756.694 261.725 757.46 261.525 758.294 261.525ZM777.367 262.425C776.867 262.592 776.317 262.7 775.717 262.75C775.117 262.8 774.384 262.825 773.517 262.825C775.067 263.525 775.842 264.633 775.842 266.15C775.842 267.467 775.392 268.542 774.492 269.375C773.592 270.208 772.367 270.625 770.817 270.625C770.217 270.625 769.659 270.542 769.142 270.375C768.942 270.508 768.784 270.692 768.667 270.925C768.551 271.142 768.492 271.367 768.492 271.6C768.492 272.317 769.067 272.675 770.217 272.675H772.317C773.201 272.675 773.984 272.833 774.667 273.15C775.351 273.467 775.876 273.9 776.242 274.45C776.626 275 776.817 275.625 776.817 276.325C776.817 277.608 776.292 278.592 775.242 279.275C774.192 279.975 772.659 280.325 770.642 280.325C769.226 280.325 768.101 280.175 767.267 279.875C766.451 279.592 765.867 279.158 765.517 278.575C765.167 277.992 764.992 277.242 764.992 276.325H767.067C767.067 276.858 767.167 277.275 767.367 277.575C767.567 277.892 767.926 278.125 768.442 278.275C768.959 278.442 769.692 278.525 770.642 278.525C772.026 278.525 773.009 278.35 773.592 278C774.192 277.667 774.492 277.158 774.492 276.475C774.492 275.858 774.259 275.392 773.792 275.075C773.326 274.758 772.676 274.6 771.842 274.6H769.767C768.651 274.6 767.801 274.367 767.217 273.9C766.651 273.417 766.367 272.817 766.367 272.1C766.367 271.667 766.492 271.25 766.742 270.85C766.992 270.45 767.351 270.092 767.817 269.775C767.051 269.375 766.484 268.883 766.117 268.3C765.767 267.7 765.592 266.975 765.592 266.125C765.592 265.242 765.809 264.45 766.242 263.75C766.692 263.05 767.301 262.508 768.067 262.125C768.851 261.725 769.717 261.525 770.667 261.525C771.701 261.542 772.567 261.508 773.267 261.425C773.967 261.325 774.542 261.2 774.992 261.05C775.459 260.883 776.026 260.65 776.692 260.35L777.367 262.425ZM770.667 263.175C769.801 263.175 769.126 263.45 768.642 264C768.176 264.533 767.942 265.242 767.942 266.125C767.942 267.025 768.184 267.75 768.667 268.3C769.151 268.833 769.834 269.1 770.717 269.1C771.617 269.1 772.301 268.842 772.767 268.325C773.251 267.792 773.492 267.05 773.492 266.1C773.492 264.15 772.551 263.175 770.667 263.175ZM789.54 256.525V275H787.515L787.29 273.175C786.857 273.842 786.315 274.367 785.665 274.75C785.015 275.117 784.29 275.3 783.49 275.3C781.923 275.3 780.698 274.683 779.815 273.45C778.948 272.217 778.515 270.558 778.515 268.475C778.515 267.125 778.723 265.925 779.14 264.875C779.557 263.825 780.157 263.008 780.94 262.425C781.723 261.825 782.64 261.525 783.69 261.525C785.04 261.525 786.223 262.067 787.24 263.15V256.25L789.54 256.525ZM783.99 273.475C784.69 273.475 785.29 273.317 785.79 273C786.29 272.667 786.773 272.175 787.24 271.525V265.075C786.807 264.508 786.34 264.083 785.84 263.8C785.357 263.5 784.807 263.35 784.19 263.35C783.173 263.35 782.382 263.775 781.815 264.625C781.265 265.475 780.99 266.742 780.99 268.425C780.99 270.125 781.248 271.392 781.765 272.225C782.282 273.058 783.023 273.475 783.99 273.475ZM799.231 261.525C801.081 261.525 802.515 262.142 803.531 263.375C804.565 264.608 805.081 266.283 805.081 268.4C805.081 269.767 804.848 270.975 804.381 272.025C803.915 273.058 803.24 273.867 802.356 274.45C801.473 275.017 800.423 275.3 799.206 275.3C797.356 275.3 795.915 274.683 794.881 273.45C793.848 272.217 793.331 270.542 793.331 268.425C793.331 267.058 793.565 265.858 794.031 264.825C794.498 263.775 795.173 262.967 796.056 262.4C796.94 261.817 797.998 261.525 799.231 261.525ZM799.231 263.375C796.948 263.375 795.806 265.058 795.806 268.425C795.806 271.775 796.94 273.45 799.206 273.45C801.473 273.45 802.606 271.767 802.606 268.4C802.606 265.05 801.481 263.375 799.231 263.375ZM822.106 261.525C823.189 261.525 824.056 261.892 824.706 262.625C825.356 263.342 825.681 264.317 825.681 265.55V275H823.381V265.875C823.381 264.175 822.764 263.325 821.531 263.325C820.881 263.325 820.331 263.517 819.881 263.9C819.431 264.267 818.948 264.85 818.431 265.65V275H816.131V265.875C816.131 264.175 815.514 263.325 814.281 263.325C813.614 263.325 813.056 263.517 812.606 263.9C812.156 264.283 811.681 264.867 811.181 265.65V275H808.881V261.825H810.856L811.056 263.75C812.039 262.267 813.306 261.525 814.856 261.525C815.673 261.525 816.364 261.733 816.931 262.15C817.514 262.567 817.931 263.15 818.181 263.9C818.698 263.133 819.264 262.55 819.881 262.15C820.514 261.733 821.256 261.525 822.106 261.525ZM602.9 299.25C602.9 300.433 602.642 301.492 602.125 302.425C601.625 303.358 600.867 304.092 599.85 304.625C598.833 305.158 597.592 305.425 596.125 305.425C593.925 305.425 592.25 304.867 591.1 303.75C589.95 302.633 589.375 301.133 589.375 299.25V287.675H593.475V299.075C593.475 300.192 593.683 301.025 594.1 301.575C594.533 302.108 595.208 302.375 596.125 302.375C597.058 302.375 597.733 302.108 598.15 301.575C598.583 301.025 598.8 300.192 598.8 299.075V287.675H602.9V299.25ZM611.338 287.25C612.638 287.25 613.763 287.433 614.713 287.8C615.679 288.167 616.554 288.725 617.338 289.475L615.438 291.7C614.254 290.733 612.988 290.25 611.638 290.25C610.921 290.25 610.354 290.4 609.938 290.7C609.521 290.983 609.313 291.4 609.313 291.95C609.313 292.333 609.404 292.65 609.588 292.9C609.771 293.133 610.096 293.358 610.563 293.575C611.029 293.792 611.729 294.05 612.663 294.35C614.429 294.917 615.729 295.617 616.563 296.45C617.396 297.267 617.813 298.433 617.813 299.95C617.813 301.033 617.538 301.992 616.988 302.825C616.438 303.642 615.646 304.283 614.613 304.75C613.579 305.2 612.354 305.425 610.938 305.425C609.521 305.425 608.263 305.2 607.163 304.75C606.079 304.3 605.146 303.7 604.363 302.95L606.438 300.675C607.104 301.242 607.788 301.667 608.488 301.95C609.204 302.233 609.979 302.375 610.813 302.375C611.663 302.375 612.329 302.192 612.813 301.825C613.313 301.442 613.563 300.917 613.563 300.25C613.563 299.817 613.471 299.458 613.288 299.175C613.104 298.875 612.788 298.608 612.338 298.375C611.888 298.142 611.238 297.892 610.388 297.625C608.471 297.042 607.104 296.325 606.288 295.475C605.488 294.625 605.088 293.55 605.088 292.25C605.088 291.25 605.354 290.375 605.888 289.625C606.421 288.858 607.163 288.275 608.113 287.875C609.063 287.458 610.138 287.25 611.338 287.25ZM629.072 305L628.172 301.275H623.122L622.247 305H617.997L623.222 287.675H628.197L633.422 305H629.072ZM623.822 298.3H627.472L625.647 290.65L623.822 298.3ZM641.235 295.275V293.35H650.635V295.275H641.235ZM641.235 300.1V298.175H650.635V300.1H641.235ZM673.101 299.475C673.101 300.625 672.859 301.642 672.376 302.525C671.909 303.392 671.217 304.075 670.301 304.575C669.401 305.058 668.317 305.3 667.051 305.3C665.134 305.3 663.651 304.775 662.601 303.725C661.567 302.658 661.051 301.242 661.051 299.475V287.775H663.426V299.3C663.426 300.633 663.726 301.633 664.326 302.3C664.926 302.967 665.834 303.3 667.051 303.3C668.284 303.3 669.201 302.975 669.801 302.325C670.401 301.658 670.701 300.65 670.701 299.3V287.775H673.101V299.475ZM683.929 291.525C685.129 291.525 686.062 291.883 686.729 292.6C687.412 293.317 687.754 294.3 687.754 295.55V305H685.454V295.875C685.454 294.942 685.279 294.283 684.929 293.9C684.579 293.517 684.062 293.325 683.379 293.325C682.679 293.325 682.062 293.525 681.529 293.925C680.995 294.325 680.495 294.9 680.029 295.65V305H677.729V291.825H679.704L679.904 293.775C680.37 293.075 680.945 292.525 681.629 292.125C682.329 291.725 683.095 291.525 683.929 291.525ZM694.677 291.825V305H692.377V291.825H694.677ZM693.502 285.5C693.985 285.5 694.377 285.65 694.677 285.95C694.977 286.25 695.127 286.625 695.127 287.075C695.127 287.525 694.977 287.9 694.677 288.2C694.377 288.483 693.985 288.625 693.502 288.625C693.035 288.625 692.652 288.483 692.352 288.2C692.052 287.9 691.902 287.525 691.902 287.075C691.902 286.625 692.052 286.25 692.352 285.95C692.652 285.65 693.035 285.5 693.502 285.5ZM706.083 304.4C705.216 305 704.233 305.3 703.133 305.3C702.016 305.3 701.141 304.983 700.508 304.35C699.891 303.7 699.583 302.767 699.583 301.55V293.6H697.283V291.825H699.583V288.85L701.883 288.575V291.825H705.008L704.758 293.6H701.883V301.45C701.883 302.133 701.999 302.633 702.233 302.95C702.483 303.25 702.891 303.4 703.458 303.4C703.974 303.4 704.558 303.225 705.208 302.875L706.083 304.4ZM718.05 298.025C718.05 298.408 718.033 298.8 718 299.2H709.6C709.7 300.65 710.066 301.717 710.7 302.4C711.333 303.083 712.15 303.425 713.15 303.425C713.783 303.425 714.366 303.333 714.9 303.15C715.433 302.967 715.991 302.675 716.575 302.275L717.575 303.65C716.175 304.75 714.641 305.3 712.975 305.3C711.141 305.3 709.708 304.7 708.675 303.5C707.658 302.3 707.15 300.65 707.15 298.55C707.15 297.183 707.366 295.975 707.8 294.925C708.25 293.858 708.883 293.025 709.7 292.425C710.533 291.825 711.508 291.525 712.625 291.525C714.375 291.525 715.716 292.1 716.65 293.25C717.583 294.4 718.05 295.992 718.05 298.025ZM715.775 297.35C715.775 296.05 715.516 295.058 715 294.375C714.483 293.692 713.708 293.35 712.675 293.35C710.791 293.35 709.766 294.733 709.6 297.5H715.775V297.35ZM731.923 286.525V305H729.898L729.673 303.175C729.239 303.842 728.698 304.367 728.048 304.75C727.398 305.117 726.673 305.3 725.873 305.3C724.306 305.3 723.081 304.683 722.198 303.45C721.331 302.217 720.898 300.558 720.898 298.475C720.898 297.125 721.106 295.925 721.523 294.875C721.939 293.825 722.539 293.008 723.323 292.425C724.106 291.825 725.023 291.525 726.073 291.525C727.423 291.525 728.606 292.067 729.623 293.15V286.25L731.923 286.525ZM726.373 303.475C727.073 303.475 727.673 303.317 728.173 303C728.673 302.667 729.156 302.175 729.623 301.525V295.075C729.189 294.508 728.723 294.083 728.223 293.8C727.739 293.5 727.189 293.35 726.573 293.35C725.556 293.35 724.764 293.775 724.198 294.625C723.648 295.475 723.373 296.742 723.373 298.425C723.373 300.125 723.631 301.392 724.148 302.225C724.664 303.058 725.406 303.475 726.373 303.475ZM747.655 287.475C748.805 287.475 749.789 287.642 750.605 287.975C751.422 288.292 752.214 288.792 752.98 289.475L751.68 290.925C751.03 290.408 750.389 290.033 749.755 289.8C749.139 289.55 748.472 289.425 747.755 289.425C746.855 289.425 746.114 289.633 745.53 290.05C744.947 290.467 744.655 291.075 744.655 291.875C744.655 292.375 744.755 292.8 744.955 293.15C745.155 293.483 745.522 293.792 746.055 294.075C746.605 294.358 747.397 294.658 748.43 294.975C749.514 295.308 750.414 295.667 751.13 296.05C751.847 296.433 752.422 296.967 752.855 297.65C753.305 298.317 753.53 299.167 753.53 300.2C753.53 301.2 753.28 302.083 752.78 302.85C752.297 303.617 751.589 304.217 750.655 304.65C749.739 305.083 748.647 305.3 747.38 305.3C744.997 305.3 743.047 304.558 741.53 303.075L742.83 301.625C743.53 302.192 744.239 302.625 744.955 302.925C745.672 303.208 746.472 303.35 747.355 303.35C748.422 303.35 749.305 303.092 750.005 302.575C750.705 302.042 751.055 301.275 751.055 300.275C751.055 299.708 750.947 299.242 750.73 298.875C750.514 298.492 750.139 298.15 749.605 297.85C749.089 297.55 748.33 297.25 747.33 296.95C745.564 296.417 744.272 295.775 743.455 295.025C742.639 294.275 742.23 293.258 742.23 291.975C742.23 291.108 742.455 290.333 742.905 289.65C743.372 288.967 744.014 288.433 744.83 288.05C745.664 287.667 746.605 287.475 747.655 287.475ZM763.553 304.4C762.687 305 761.703 305.3 760.603 305.3C759.487 305.3 758.612 304.983 757.978 304.35C757.362 303.7 757.053 302.767 757.053 301.55V293.6H754.753V291.825H757.053V288.85L759.353 288.575V291.825H762.478L762.228 293.6H759.353V301.45C759.353 302.133 759.47 302.633 759.703 302.95C759.953 303.25 760.362 303.4 760.928 303.4C761.445 303.4 762.028 303.225 762.678 302.875L763.553 304.4ZM774.641 301.925C774.641 302.458 774.732 302.858 774.916 303.125C775.099 303.375 775.374 303.567 775.741 303.7L775.216 305.3C774.532 305.217 773.982 305.025 773.566 304.725C773.149 304.425 772.841 303.958 772.641 303.325C771.757 304.642 770.449 305.3 768.716 305.3C767.416 305.3 766.391 304.933 765.641 304.2C764.891 303.467 764.516 302.508 764.516 301.325C764.516 299.925 765.016 298.85 766.016 298.1C767.032 297.35 768.466 296.975 770.316 296.975H772.341V296C772.341 295.067 772.116 294.4 771.666 294C771.216 293.6 770.524 293.4 769.591 293.4C768.624 293.4 767.441 293.633 766.041 294.1L765.466 292.425C767.099 291.825 768.616 291.525 770.016 291.525C771.566 291.525 772.724 291.908 773.491 292.675C774.257 293.425 774.641 294.5 774.641 295.9V301.925ZM769.241 303.575C770.557 303.575 771.591 302.892 772.341 301.525V298.5H770.616C768.182 298.5 766.966 299.4 766.966 301.2C766.966 301.983 767.157 302.575 767.541 302.975C767.924 303.375 768.491 303.575 769.241 303.575ZM786.014 304.4C785.148 305 784.164 305.3 783.064 305.3C781.948 305.3 781.073 304.983 780.439 304.35C779.823 303.7 779.514 302.767 779.514 301.55V293.6H777.214V291.825H779.514V288.85L781.814 288.575V291.825H784.939L784.689 293.6H781.814V301.45C781.814 302.133 781.931 302.633 782.164 302.95C782.414 303.25 782.823 303.4 783.389 303.4C783.906 303.4 784.489 303.225 785.139 302.875L786.014 304.4ZM797.981 298.025C797.981 298.408 797.965 298.8 797.931 299.2H789.531C789.631 300.65 789.998 301.717 790.631 302.4C791.265 303.083 792.081 303.425 793.081 303.425C793.715 303.425 794.298 303.333 794.831 303.15C795.365 302.967 795.923 302.675 796.506 302.275L797.506 303.65C796.106 304.75 794.573 305.3 792.906 305.3C791.073 305.3 789.64 304.7 788.606 303.5C787.59 302.3 787.081 300.65 787.081 298.55C787.081 297.183 787.298 295.975 787.731 294.925C788.181 293.858 788.815 293.025 789.631 292.425C790.465 291.825 791.44 291.525 792.556 291.525C794.306 291.525 795.648 292.1 796.581 293.25C797.515 294.4 797.981 295.992 797.981 298.025ZM795.706 297.35C795.706 296.05 795.448 295.058 794.931 294.375C794.415 293.692 793.64 293.35 792.606 293.35C790.723 293.35 789.698 294.733 789.531 297.5H795.706V297.35ZM805.229 291.525C806.129 291.525 806.938 291.65 807.654 291.9C808.371 292.15 809.054 292.525 809.704 293.025L808.729 294.475C808.129 294.092 807.554 293.808 807.004 293.625C806.471 293.442 805.904 293.35 805.304 293.35C804.554 293.35 803.963 293.508 803.529 293.825C803.096 294.125 802.879 294.542 802.879 295.075C802.879 295.608 803.079 296.025 803.479 296.325C803.896 296.625 804.638 296.917 805.704 297.2C807.171 297.567 808.263 298.067 808.979 298.7C809.713 299.333 810.079 300.2 810.079 301.3C810.079 302.6 809.571 303.592 808.554 304.275C807.554 304.958 806.329 305.3 804.879 305.3C802.879 305.3 801.221 304.725 799.904 303.575L801.129 302.175C802.246 303.025 803.479 303.45 804.829 303.45C805.696 303.45 806.379 303.275 806.879 302.925C807.396 302.558 807.654 302.067 807.654 301.45C807.654 301 807.563 300.642 807.379 300.375C807.196 300.092 806.879 299.85 806.429 299.65C805.979 299.433 805.321 299.208 804.454 298.975C803.054 298.608 802.038 298.117 801.404 297.5C800.788 296.883 800.479 296.1 800.479 295.15C800.479 294.467 800.679 293.85 801.079 293.3C801.496 292.733 802.063 292.3 802.779 292C803.513 291.683 804.329 291.525 805.229 291.525Z" fill="white"/>
<path d="M46.618 258.352C48.602 258.352 50.266 258.608 51.61 259.12C52.986 259.632 54.378 260.464 55.786 261.616L53.29 264.544C51.274 262.912 49.146 262.096 46.906 262.096C44.154 262.096 41.93 263.152 40.234 265.264C38.57 267.376 37.738 270.768 37.738 275.44C37.738 279.984 38.57 283.344 40.234 285.52C41.898 287.664 44.106 288.736 46.858 288.736C48.266 288.736 49.498 288.496 50.554 288.016C51.61 287.536 52.73 286.864 53.914 286L56.17 288.88C55.146 289.936 53.834 290.816 52.234 291.52C50.634 292.224 48.794 292.576 46.714 292.576C44.026 292.576 41.626 291.92 39.514 290.608C37.434 289.264 35.802 287.312 34.618 284.752C33.466 282.16 32.89 279.056 32.89 275.44C32.89 271.824 33.498 268.736 34.714 266.176C35.93 263.584 37.578 261.632 39.658 260.32C41.738 259.008 44.058 258.352 46.618 258.352ZM70.2359 266.128C73.7879 266.128 76.5399 267.312 78.4919 269.68C80.4759 272.048 81.4679 275.264 81.4679 279.328C81.4679 281.952 81.0199 284.272 80.1239 286.288C79.2279 288.272 77.9319 289.824 76.2359 290.944C74.5399 292.032 72.5239 292.576 70.1879 292.576C66.6359 292.576 63.8679 291.392 61.8839 289.024C59.8999 286.656 58.9079 283.44 58.9079 279.376C58.9079 276.752 59.3559 274.448 60.2519 272.464C61.1479 270.448 62.4439 268.896 64.1399 267.808C65.8359 266.688 67.8679 266.128 70.2359 266.128ZM70.2359 269.68C65.8519 269.68 63.6599 272.912 63.6599 279.376C63.6599 285.808 65.8359 289.024 70.1879 289.024C74.5399 289.024 76.7159 285.792 76.7159 279.328C76.7159 272.896 74.5559 269.68 70.2359 269.68ZM107.579 292H103.787L103.451 288.064C102.491 289.632 101.387 290.784 100.139 291.52C98.8911 292.224 97.3711 292.576 95.5791 292.576C93.3711 292.576 91.6431 291.904 90.3951 290.56C89.1471 289.216 88.5231 287.312 88.5231 284.848V266.704H92.9391V284.368C92.9391 286.096 93.2431 287.328 93.8511 288.064C94.4591 288.768 95.4511 289.12 96.8271 289.12C99.2911 289.12 101.403 287.664 103.163 284.752V266.704H107.579V292ZM128.605 266.128C130.909 266.128 132.701 266.816 133.981 268.192C135.293 269.568 135.949 271.456 135.949 273.856V292H131.533V274.48C131.533 272.688 131.197 271.424 130.525 270.688C129.853 269.952 128.861 269.584 127.549 269.584C126.205 269.584 125.021 269.968 123.997 270.736C122.973 271.504 122.013 272.608 121.117 274.048V292H116.701V266.704H120.493L120.877 270.448C121.773 269.104 122.877 268.048 124.189 267.28C125.533 266.512 127.005 266.128 128.605 266.128ZM157.594 290.848C155.93 292 154.042 292.576 151.93 292.576C149.786 292.576 148.106 291.968 146.89 290.752C145.706 289.504 145.114 287.712 145.114 285.376V270.112H140.698V266.704H145.114V260.992L149.53 260.464V266.704H155.53L155.05 270.112H149.53V285.184C149.53 286.496 149.754 287.456 150.202 288.064C150.682 288.64 151.466 288.928 152.554 288.928C153.546 288.928 154.666 288.592 155.914 287.92L157.594 290.848ZM173.161 266.128C174.057 266.128 174.889 266.224 175.657 266.416L174.841 270.736C174.073 270.544 173.337 270.448 172.633 270.448C171.065 270.448 169.801 271.024 168.841 272.176C167.881 273.328 167.129 275.12 166.585 277.552V292H162.169V266.704H165.961L166.393 271.84C167.065 269.952 167.977 268.528 169.129 267.568C170.281 266.608 171.625 266.128 173.161 266.128ZM190.813 292.144C189.821 295.088 188.429 297.408 186.637 299.104C184.877 300.832 182.349 301.872 179.053 302.224L178.573 298.768C180.237 298.48 181.565 298.064 182.557 297.52C183.549 296.976 184.333 296.272 184.909 295.408C185.517 294.576 186.077 293.44 186.589 292H185.101L176.605 266.704H181.309L188.077 288.784L194.701 266.704H199.261L190.813 292.144Z" fill="white"/>
<path d="M349.468 292H343.372L329.932 263.92C330.124 266.128 330.268 268.176 330.364 270.064C330.492 271.92 330.556 274.176 330.556 276.832V292H326.284V258.928H332.236L345.82 287.056C345.724 286.224 345.596 284.768 345.436 282.688C345.276 280.608 345.196 278.704 345.196 276.976V258.928H349.468V292ZM377.626 292H373.834L373.498 288.064C372.538 289.632 371.434 290.784 370.186 291.52C368.938 292.224 367.418 292.576 365.626 292.576C363.418 292.576 361.69 291.904 360.442 290.56C359.194 289.216 358.57 287.312 358.57 284.848V266.704H362.986V284.368C362.986 286.096 363.29 287.328 363.898 288.064C364.506 288.768 365.498 289.12 366.874 289.12C369.338 289.12 371.45 287.664 373.21 284.752V266.704H377.626V292ZM412.14 266.128C414.22 266.128 415.884 266.832 417.132 268.24C418.38 269.616 419.004 271.488 419.004 273.856V292H414.588V274.48C414.588 271.216 413.404 269.584 411.036 269.584C409.788 269.584 408.732 269.952 407.868 270.688C407.004 271.392 406.076 272.512 405.084 274.048V292H400.668V274.48C400.668 271.216 399.484 269.584 397.116 269.584C395.836 269.584 394.764 269.952 393.9 270.688C393.036 271.424 392.124 272.544 391.164 274.048V292H386.748V266.704H390.54L390.924 270.4C392.812 267.552 395.244 266.128 398.22 266.128C399.788 266.128 401.116 266.528 402.204 267.328C403.324 268.128 404.124 269.248 404.604 270.688C405.596 269.216 406.684 268.096 407.868 267.328C409.084 266.528 410.508 266.128 412.14 266.128ZM439.472 266.128C442.352 266.128 444.64 267.296 446.336 269.632C448.032 271.936 448.88 275.168 448.88 279.328C448.88 281.952 448.48 284.272 447.68 286.288C446.88 288.272 445.728 289.824 444.224 290.944C442.72 292.032 440.96 292.576 438.944 292.576C436.288 292.576 434.048 291.456 432.224 289.216L431.792 292H427.904V256.528L432.32 256V269.872C434.144 267.376 436.528 266.128 439.472 266.128ZM437.888 289.072C439.84 289.072 441.36 288.288 442.448 286.72C443.568 285.12 444.128 282.656 444.128 279.328C444.128 275.904 443.616 273.44 442.592 271.936C441.568 270.4 440.112 269.632 438.224 269.632C435.984 269.632 434.016 270.944 432.32 273.568V285.664C432.992 286.72 433.808 287.552 434.768 288.16C435.76 288.768 436.8 289.072 437.888 289.072ZM475.508 278.608C475.508 279.344 475.476 280.096 475.412 280.864H459.284C459.476 283.648 460.18 285.696 461.396 287.008C462.612 288.32 464.18 288.976 466.1 288.976C467.316 288.976 468.436 288.8 469.46 288.448C470.484 288.096 471.556 287.536 472.676 286.768L474.596 289.408C471.908 291.52 468.964 292.576 465.764 292.576C462.244 292.576 459.492 291.424 457.508 289.12C455.556 286.816 454.58 283.648 454.58 279.616C454.58 276.992 454.996 274.672 455.828 272.656C456.692 270.608 457.908 269.008 459.476 267.856C461.076 266.704 462.948 266.128 465.092 266.128C468.452 266.128 471.028 267.232 472.82 269.44C474.612 271.648 475.508 274.704 475.508 278.608ZM471.14 277.312C471.14 274.816 470.644 272.912 469.652 271.6C468.66 270.288 467.172 269.632 465.188 269.632C461.572 269.632 459.604 272.288 459.284 277.6H471.14V277.312ZM493.552 266.128C494.448 266.128 495.28 266.224 496.048 266.416L495.232 270.736C494.464 270.544 493.728 270.448 493.024 270.448C491.456 270.448 490.192 271.024 489.232 272.176C488.272 273.328 487.52 275.12 486.976 277.552V292H482.56V266.704H486.352L486.784 271.84C487.456 269.952 488.368 268.528 489.52 267.568C490.672 266.608 492.016 266.128 493.552 266.128Z" fill="white"/>
<path d="M141 191L133.8 161.2H93.4L86.4 191H52.4L94.2 52.4H134L175.8 191H141ZM99 137.4H128.2L113.6 76.2L99 137.4ZM229.23 140.6V116.2H293.03V140.6H229.23ZM425.736 55.8V191H394.736V86.6L365.736 104.4L351.936 83.4L397.536 55.8H425.736Z" fill="white"/>
<line x1="17" y1="239.5" x2="213" y2="239.5" stroke="white" stroke-width="15"/>
<line x1="311" y1="239.5" x2="507" y2="239.5" stroke="white" stroke-width="15"/>
</svg>
