<svg width="703" height="1117" viewBox="0 0 703 1117" fill="none" xmlns="http://www.w3.org/2000/svg">
<rect x="3" y="104" width="99" height="101" stroke="#C5FA9A" stroke-width="6"/>
<rect x="102" y="104" width="466" height="101" stroke="#C5FA9A" stroke-width="6"/>
<rect x="3" y="3" width="565" height="101" stroke="#C5FA9A" stroke-width="6"/>
<rect x="568" y="3" width="132" height="101" stroke="#C5FA9A" stroke-width="6"/>
<path d="M201.368 36.352C203.352 36.352 205.016 36.608 206.36 37.12C207.736 37.632 209.128 38.464 210.536 39.616L208.04 42.544C206.024 40.912 203.896 40.096 201.656 40.096C198.904 40.096 196.68 41.152 194.984 43.264C193.32 45.376 192.488 48.768 192.488 53.44C192.488 57.984 193.32 61.344 194.984 63.52C196.648 65.664 198.856 66.736 201.608 66.736C203.016 66.736 204.248 66.496 205.304 66.016C206.36 65.536 207.48 64.864 208.664 64L210.92 66.88C209.896 67.936 208.584 68.816 206.984 69.52C205.384 70.224 203.544 70.576 201.464 70.576C198.776 70.576 196.376 69.92 194.264 68.608C192.184 67.264 190.552 65.312 189.368 62.752C188.216 60.16 187.64 57.056 187.64 53.44C187.64 49.824 188.248 46.736 189.464 44.176C190.68 41.584 192.328 39.632 194.408 38.32C196.488 37.008 198.808 36.352 201.368 36.352ZM224.986 44.128C228.538 44.128 231.29 45.312 233.242 47.68C235.226 50.048 236.218 53.264 236.218 57.328C236.218 59.952 235.77 62.272 234.874 64.288C233.978 66.272 232.682 67.824 230.986 68.944C229.29 70.032 227.274 70.576 224.938 70.576C221.386 70.576 218.618 69.392 216.634 67.024C214.65 64.656 213.658 61.44 213.658 57.376C213.658 54.752 214.106 52.448 215.002 50.464C215.898 48.448 217.194 46.896 218.89 45.808C220.586 44.688 222.618 44.128 224.986 44.128ZM224.986 47.68C220.602 47.68 218.41 50.912 218.41 57.376C218.41 63.808 220.586 67.024 224.938 67.024C229.29 67.024 231.466 63.792 231.466 57.328C231.466 50.896 229.306 47.68 224.986 47.68ZM262.329 70H258.537L258.201 66.064C257.241 67.632 256.137 68.784 254.889 69.52C253.641 70.224 252.121 70.576 250.329 70.576C248.121 70.576 246.393 69.904 245.145 68.56C243.897 67.216 243.273 65.312 243.273 62.848V44.704H247.689V62.368C247.689 64.096 247.993 65.328 248.601 66.064C249.209 66.768 250.201 67.12 251.577 67.12C254.041 67.12 256.153 65.664 257.913 62.752V44.704H262.329V70ZM283.355 44.128C285.659 44.128 287.451 44.816 288.731 46.192C290.043 47.568 290.699 49.456 290.699 51.856V70H286.283V52.48C286.283 50.688 285.947 49.424 285.275 48.688C284.603 47.952 283.611 47.584 282.299 47.584C280.955 47.584 279.771 47.968 278.747 48.736C277.723 49.504 276.763 50.608 275.867 52.048V70H271.451V44.704H275.243L275.627 48.448C276.523 47.104 277.627 46.048 278.939 45.28C280.283 44.512 281.755 44.128 283.355 44.128ZM312.344 68.848C310.68 70 308.792 70.576 306.68 70.576C304.536 70.576 302.856 69.968 301.64 68.752C300.456 67.504 299.864 65.712 299.864 63.376V48.112H295.448V44.704H299.864V38.992L304.28 38.464V44.704H310.28L309.8 48.112H304.28V63.184C304.28 64.496 304.504 65.456 304.952 66.064C305.432 66.64 306.216 66.928 307.304 66.928C308.296 66.928 309.416 66.592 310.664 65.92L312.344 68.848ZM327.911 44.128C328.807 44.128 329.639 44.224 330.407 44.416L329.591 48.736C328.823 48.544 328.087 48.448 327.383 48.448C325.815 48.448 324.551 49.024 323.591 50.176C322.631 51.328 321.879 53.12 321.335 55.552V70H316.919V44.704H320.711L321.143 49.84C321.815 47.952 322.727 46.528 323.879 45.568C325.031 44.608 326.375 44.128 327.911 44.128ZM345.563 70.144C344.571 73.088 343.179 75.408 341.387 77.104C339.627 78.832 337.099 79.872 333.803 80.224L333.323 76.768C334.987 76.48 336.315 76.064 337.307 75.52C338.299 74.976 339.083 74.272 339.659 73.408C340.267 72.576 340.827 71.44 341.339 70H339.851L331.355 44.704H336.059L342.827 66.784L349.451 44.704H354.011L345.563 70.144ZM376.563 36.928V66.016H390.147L389.619 70H372.003V36.928H376.563ZM400.085 44.704V70H395.669V44.704H400.085ZM397.829 32.56C398.757 32.56 399.509 32.848 400.085 33.424C400.661 34 400.949 34.72 400.949 35.584C400.949 36.448 400.661 37.168 400.085 37.744C399.509 38.288 398.757 38.56 397.829 38.56C396.933 38.56 396.197 38.288 395.621 37.744C395.045 37.168 394.757 36.448 394.757 35.584C394.757 34.72 395.045 34 395.621 33.424C396.197 32.848 396.933 32.56 397.829 32.56ZM416.08 44.128C417.808 44.128 419.36 44.368 420.736 44.848C422.112 45.328 423.424 46.048 424.672 47.008L422.8 49.792C421.648 49.056 420.544 48.512 419.488 48.16C418.464 47.808 417.376 47.632 416.224 47.632C414.784 47.632 413.648 47.936 412.816 48.544C411.984 49.12 411.568 49.92 411.568 50.944C411.568 51.968 411.952 52.768 412.72 53.344C413.52 53.92 414.944 54.48 416.992 55.024C419.808 55.728 421.904 56.688 423.28 57.904C424.688 59.12 425.392 60.784 425.392 62.896C425.392 65.392 424.416 67.296 422.464 68.608C420.544 69.92 418.192 70.576 415.408 70.576C411.568 70.576 408.384 69.472 405.856 67.264L408.208 64.576C410.352 66.208 412.72 67.024 415.312 67.024C416.976 67.024 418.288 66.688 419.248 66.016C420.24 65.312 420.736 64.368 420.736 63.184C420.736 62.32 420.56 61.632 420.208 61.12C419.856 60.576 419.248 60.112 418.384 59.728C417.52 59.312 416.256 58.88 414.592 58.432C411.904 57.728 409.952 56.784 408.736 55.6C407.552 54.416 406.96 52.912 406.96 51.088C406.96 49.776 407.344 48.592 408.112 47.536C408.912 46.448 410 45.616 411.376 45.04C412.784 44.432 414.352 44.128 416.08 44.128ZM444.391 68.848C442.727 70 440.839 70.576 438.727 70.576C436.583 70.576 434.903 69.968 433.687 68.752C432.503 67.504 431.911 65.712 431.911 63.376V48.112H427.495V44.704H431.911V38.992L436.327 38.464V44.704H442.327L441.847 48.112H436.327V63.184C436.327 64.496 436.551 65.456 436.999 66.064C437.479 66.64 438.263 66.928 439.351 66.928C440.343 66.928 441.463 66.592 442.711 65.92L444.391 68.848Z" fill="white"/>
<path d="M611.054 70H604.958L591.518 41.92C591.71 44.128 591.854 46.176 591.95 48.064C592.078 49.92 592.142 52.176 592.142 54.832V70H587.87V36.928H593.822L607.406 65.056C607.31 64.224 607.182 62.768 607.022 60.688C606.862 58.608 606.782 56.704 606.782 54.976V36.928H611.054V70ZM639.212 70H635.42L635.084 66.064C634.124 67.632 633.02 68.784 631.772 69.52C630.524 70.224 629.004 70.576 627.212 70.576C625.004 70.576 623.276 69.904 622.028 68.56C620.78 67.216 620.156 65.312 620.156 62.848V44.704H624.572V62.368C624.572 64.096 624.876 65.328 625.484 66.064C626.092 66.768 627.084 67.12 628.46 67.12C630.924 67.12 633.036 65.664 634.796 62.752V44.704H639.212V70ZM673.725 44.128C675.805 44.128 677.469 44.832 678.717 46.24C679.965 47.616 680.589 49.488 680.589 51.856V70H676.173V52.48C676.173 49.216 674.989 47.584 672.621 47.584C671.373 47.584 670.317 47.952 669.453 48.688C668.589 49.392 667.661 50.512 666.669 52.048V70H662.253V52.48C662.253 49.216 661.069 47.584 658.701 47.584C657.421 47.584 656.349 47.952 655.485 48.688C654.621 49.424 653.709 50.544 652.749 52.048V70H648.333V44.704H652.125L652.509 48.4C654.397 45.552 656.829 44.128 659.805 44.128C661.373 44.128 662.701 44.528 663.789 45.328C664.909 46.128 665.709 47.248 666.189 48.688C667.181 47.216 668.269 46.096 669.453 45.328C670.669 44.528 672.093 44.128 673.725 44.128Z" fill="#C5FA9A"/>
<path d="M43.7703 140.552C47.0663 140.552 49.5623 141.96 51.2583 144.776C52.9543 147.56 53.8023 151.656 53.8023 157.064C53.8023 162.44 52.9383 166.536 51.2103 169.352C49.5143 172.136 47.0343 173.528 43.7703 173.528C40.4743 173.528 37.9783 172.136 36.2823 169.352C34.5863 166.536 33.7383 162.424 33.7383 157.016C33.7383 151.608 34.5863 147.512 36.2823 144.728C37.9783 141.944 40.4743 140.552 43.7703 140.552ZM43.7703 142.856C39.0023 142.856 36.6183 147.576 36.6183 157.016C36.6183 166.488 39.0023 171.224 43.7703 171.224C46.1063 171.224 47.8663 170.072 49.0503 167.768C50.2663 165.464 50.8743 161.896 50.8743 157.064C50.8743 152.232 50.2663 148.664 49.0503 146.36C47.8663 144.024 46.1063 142.856 43.7703 142.856ZM69.6176 141.08V173H66.8336V144.152L58.9616 149.048L57.6656 146.984L67.2176 141.08H69.6176Z" fill="white"/>
<rect x="568" y="104" width="132" height="101" stroke="#C5FA9A" stroke-width="6"/>
<path d="M621.236 140.408C624.788 140.408 627.46 141.832 629.252 144.68C631.076 147.496 631.988 151.592 631.988 156.968C631.988 162.344 631.076 166.456 629.252 169.304C627.46 172.152 624.788 173.576 621.236 173.576C617.684 173.576 614.996 172.152 613.172 169.304C611.38 166.456 610.484 162.344 610.484 156.968C610.484 151.592 611.38 147.496 613.172 144.68C614.996 141.832 617.684 140.408 621.236 140.408ZM621.236 143.912C619.156 143.912 617.604 144.936 616.58 146.984C615.588 149.032 615.092 152.36 615.092 156.968C615.092 161.576 615.588 164.92 616.58 167C617.604 169.048 619.156 170.072 621.236 170.072C623.284 170.072 624.82 169.048 625.844 167C626.868 164.92 627.38 161.576 627.38 156.968C627.38 152.392 626.868 149.08 625.844 147.032C624.82 144.952 623.284 143.912 621.236 143.912ZM658.705 161.576V165.08H654.529V173H650.257V165.08H636.529V161.912L646.177 140.408L649.873 141.944L641.185 161.576H650.305L650.689 152.936H654.529V161.576H658.705Z" fill="#C5FA9A"/>
<rect x="568" y="205" width="132" height="101" stroke="#C5FA9A" stroke-width="6"/>
<path d="M622.267 241.408C625.819 241.408 628.491 242.832 630.283 245.68C632.107 248.496 633.019 252.592 633.019 257.968C633.019 263.344 632.107 267.456 630.283 270.304C628.491 273.152 625.819 274.576 622.267 274.576C618.715 274.576 616.027 273.152 614.203 270.304C612.411 267.456 611.515 263.344 611.515 257.968C611.515 252.592 612.411 248.496 614.203 245.68C616.027 242.832 618.715 241.408 622.267 241.408ZM622.267 244.912C620.187 244.912 618.635 245.936 617.611 247.984C616.619 250.032 616.123 253.36 616.123 257.968C616.123 262.576 616.619 265.92 617.611 268C618.635 270.048 620.187 271.072 622.267 271.072C624.315 271.072 625.851 270.048 626.875 268C627.899 265.92 628.411 262.576 628.411 257.968C628.411 253.392 627.899 250.08 626.875 248.032C625.851 245.952 624.315 244.912 622.267 244.912ZM645.972 241.408C647.956 241.408 649.652 241.776 651.06 242.512C652.5 243.248 653.588 244.24 654.324 245.488C655.092 246.736 655.476 248.096 655.476 249.568C655.476 251.52 654.9 253.136 653.748 254.416C652.628 255.664 651.124 256.512 649.236 256.96C651.38 257.152 653.124 257.92 654.468 259.264C655.812 260.608 656.484 262.432 656.484 264.736C656.484 266.592 656.036 268.272 655.14 269.776C654.244 271.28 652.964 272.464 651.3 273.328C649.636 274.16 647.716 274.576 645.54 274.576C643.588 274.576 641.796 274.224 640.164 273.52C638.532 272.784 637.108 271.696 635.892 270.256L638.532 267.808C639.588 268.896 640.66 269.696 641.748 270.208C642.868 270.72 644.084 270.976 645.396 270.976C647.412 270.976 648.996 270.416 650.148 269.296C651.3 268.144 651.876 266.608 651.876 264.688C651.876 262.576 651.332 261.088 650.244 260.224C649.156 259.36 647.572 258.928 645.492 258.928H643.092L643.62 255.52H645.252C646.916 255.52 648.292 255.024 649.38 254.032C650.5 253.04 651.06 251.648 651.06 249.856C651.06 248.352 650.58 247.168 649.62 246.304C648.66 245.408 647.364 244.96 645.732 244.96C644.484 244.96 643.332 245.184 642.276 245.632C641.252 246.08 640.196 246.816 639.108 247.84L636.804 245.2C639.524 242.672 642.58 241.408 645.972 241.408Z" fill="#C5FA9A"/>
<path d="M147.28 173L144.4 164.024H130.576L127.696 173H124.768L135.76 140.12H139.36L150.304 173H147.28ZM131.392 161.576H143.632L137.536 142.472L131.392 161.576ZM173.845 173H171.445L171.301 168.536C169.317 171.864 166.581 173.528 163.093 173.528C160.821 173.528 159.061 172.872 157.813 171.56C156.597 170.216 155.989 168.312 155.989 165.848V147.896H158.773V165.56C158.773 167.512 159.173 168.952 159.973 169.88C160.805 170.776 162.053 171.224 163.717 171.224C166.629 171.224 169.077 169.512 171.061 166.088V147.896H173.845V173ZM190.17 147.368C191.738 147.368 193.162 147.608 194.442 148.088C195.722 148.536 196.97 149.224 198.186 150.152L196.89 151.976C195.738 151.176 194.65 150.6 193.626 150.248C192.602 149.864 191.482 149.672 190.266 149.672C188.602 149.672 187.258 150.056 186.234 150.824C185.21 151.592 184.698 152.616 184.698 153.896C184.698 155.112 185.13 156.056 185.993 156.728C186.89 157.4 188.49 158.04 190.794 158.648C193.642 159.384 195.69 160.312 196.938 161.432C198.218 162.552 198.858 164.152 198.858 166.232C198.858 168.472 197.994 170.248 196.266 171.56C194.538 172.872 192.378 173.528 189.786 173.528C187.866 173.528 186.186 173.256 184.746 172.712C183.306 172.136 181.994 171.336 180.81 170.312L182.346 168.536C183.466 169.432 184.602 170.104 185.754 170.552C186.938 170.968 188.266 171.176 189.738 171.176C191.594 171.176 193.082 170.76 194.202 169.928C195.354 169.064 195.93 167.88 195.93 166.376C195.93 165.352 195.738 164.52 195.354 163.88C194.97 163.24 194.314 162.696 193.386 162.248C192.458 161.768 191.098 161.288 189.306 160.808C186.65 160.104 184.73 159.224 183.546 158.168C182.394 157.112 181.818 155.704 181.818 153.944C181.818 152.696 182.186 151.576 182.922 150.584C183.658 149.56 184.65 148.776 185.898 148.232C187.178 147.656 188.602 147.368 190.17 147.368ZM217.715 171.944C216.115 173 214.355 173.528 212.435 173.528C210.515 173.528 209.011 172.968 207.923 171.848C206.835 170.696 206.291 169.048 206.291 166.904V150.152H202.067V147.896H206.291V141.896L209.075 141.56V147.896H215.555L215.219 150.152H209.075V166.76C209.075 168.232 209.379 169.336 209.987 170.072C210.595 170.776 211.523 171.128 212.771 171.128C214.051 171.128 215.331 170.76 216.611 170.024L217.715 171.944ZM232.395 147.368C233.387 147.368 234.219 147.464 234.891 147.656L234.363 150.296C233.659 150.104 232.923 150.008 232.155 150.008C230.459 150.008 229.083 150.632 228.027 151.88C227.003 153.096 226.139 155.016 225.435 157.64V173H222.651V147.896H225.051L225.291 153.512C225.963 151.432 226.875 149.896 228.027 148.904C229.211 147.88 230.667 147.368 232.395 147.368ZM254.469 167.432C254.469 168.744 254.629 169.688 254.949 170.264C255.301 170.84 255.845 171.272 256.581 171.56L255.957 173.528C254.805 173.304 253.909 172.872 253.269 172.232C252.661 171.592 252.261 170.616 252.069 169.304C250.341 172.12 247.733 173.528 244.245 173.528C241.845 173.528 239.941 172.856 238.533 171.512C237.157 170.136 236.469 168.312 236.469 166.04C236.469 163.448 237.381 161.448 239.205 160.04C241.061 158.632 243.621 157.928 246.885 157.928H251.685V155.48C251.685 153.464 251.237 152.008 250.341 151.112C249.445 150.184 247.957 149.72 245.877 149.72C243.957 149.72 241.685 150.2 239.061 151.16L238.341 149.048C241.157 147.928 243.797 147.368 246.261 147.368C251.733 147.368 254.469 150.024 254.469 155.336V167.432ZM244.725 171.272C247.733 171.272 250.053 169.8 251.685 166.856V159.944H247.317C244.757 159.944 242.805 160.44 241.461 161.432C240.117 162.424 239.445 163.912 239.445 165.896C239.445 167.624 239.909 168.952 240.837 169.88C241.765 170.808 243.061 171.272 244.725 171.272ZM268.311 173.528C266.935 173.528 265.847 173.128 265.047 172.328C264.279 171.528 263.895 170.344 263.895 168.776V137.672L266.679 137.336V168.68C266.679 170.312 267.351 171.128 268.695 171.128C269.367 171.128 269.943 171.016 270.423 170.792L271.191 172.856C270.295 173.304 269.335 173.528 268.311 173.528ZM280.56 147.896V173H277.776V147.896H280.56ZM279.12 136.856C279.76 136.856 280.272 137.048 280.656 137.432C281.04 137.816 281.232 138.296 281.232 138.872C281.232 139.448 281.04 139.928 280.656 140.312C280.272 140.696 279.76 140.888 279.12 140.888C278.512 140.888 278.016 140.696 277.632 140.312C277.248 139.928 277.056 139.448 277.056 138.872C277.056 138.296 277.248 137.816 277.632 137.432C278.016 137.048 278.512 136.856 279.12 136.856ZM306.313 167.432C306.313 168.744 306.473 169.688 306.793 170.264C307.145 170.84 307.689 171.272 308.425 171.56L307.801 173.528C306.649 173.304 305.753 172.872 305.113 172.232C304.505 171.592 304.105 170.616 303.913 169.304C302.185 172.12 299.577 173.528 296.089 173.528C293.689 173.528 291.785 172.856 290.377 171.512C289.001 170.136 288.313 168.312 288.313 166.04C288.313 163.448 289.225 161.448 291.049 160.04C292.905 158.632 295.465 157.928 298.729 157.928H303.529V155.48C303.529 153.464 303.081 152.008 302.185 151.112C301.289 150.184 299.801 149.72 297.721 149.72C295.801 149.72 293.529 150.2 290.905 151.16L290.185 149.048C293.001 147.928 295.641 147.368 298.105 147.368C303.577 147.368 306.313 150.024 306.313 155.336V167.432ZM296.569 171.272C299.577 171.272 301.897 169.8 303.529 166.856V159.944H299.161C296.601 159.944 294.649 160.44 293.305 161.432C291.961 162.424 291.289 163.912 291.289 165.896C291.289 167.624 291.753 168.952 292.681 169.88C293.609 170.808 294.905 171.272 296.569 171.272Z" fill="white"/>
<rect x="3" y="205" width="99" height="101" stroke="#C5FA9A" stroke-width="6"/>
<rect x="102" y="205" width="466" height="101" stroke="#C5FA9A" stroke-width="6"/>
<path d="M41.8484 241.552C45.1444 241.552 47.6404 242.96 49.3364 245.776C51.0324 248.56 51.8804 252.656 51.8804 258.064C51.8804 263.44 51.0164 267.536 49.2884 270.352C47.5924 273.136 45.1124 274.528 41.8484 274.528C38.5524 274.528 36.0564 273.136 34.3604 270.352C32.6644 267.536 31.8164 263.424 31.8164 258.016C31.8164 252.608 32.6644 248.512 34.3604 245.728C36.0564 242.944 38.5524 241.552 41.8484 241.552ZM41.8484 243.856C37.0804 243.856 34.6964 248.576 34.6964 258.016C34.6964 267.488 37.0804 272.224 41.8484 272.224C44.1844 272.224 45.9444 271.072 47.1284 268.768C48.3444 266.464 48.9524 262.896 48.9524 258.064C48.9524 253.232 48.3444 249.664 47.1284 247.36C45.9444 245.024 44.1844 243.856 41.8484 243.856ZM65.1828 241.552C67.8708 241.552 69.9988 242.336 71.5668 243.904C73.1668 245.472 73.9668 247.488 73.9668 249.952C73.9668 252.032 73.5348 253.984 72.6708 255.808C71.8068 257.632 70.4468 259.632 68.5908 261.808C66.7668 263.984 63.8068 267.232 59.7108 271.552H74.8308L74.4468 274H56.4468V271.648C60.8308 266.976 63.9668 263.52 65.8548 261.28C67.7748 259.008 69.1188 257.056 69.8868 255.424C70.6868 253.76 71.0868 251.984 71.0868 250.096C71.0868 248.208 70.5268 246.704 69.4068 245.584C68.3188 244.464 66.8628 243.904 65.0388 243.904C63.5668 243.904 62.2548 244.208 61.1028 244.816C59.9828 245.424 58.9108 246.336 57.8868 247.552L55.9668 246.112C57.2468 244.544 58.6228 243.392 60.0948 242.656C61.5988 241.92 63.2948 241.552 65.1828 241.552Z" fill="white"/>
<path d="M142.528 256.576C144.768 256.832 146.592 257.632 148 258.976C149.408 260.288 150.112 262.256 150.112 264.88C150.112 267.952 149.072 270.24 146.992 271.744C144.912 273.248 142.016 274 138.304 274H129.328V241.12H136.672C140.48 241.12 143.408 241.808 145.456 243.184C147.536 244.56 148.576 246.608 148.576 249.328C148.576 251.344 148.016 252.976 146.896 254.224C145.808 255.472 144.352 256.256 142.528 256.576ZM132.208 243.52V255.568H138.832C140.88 255.568 142.528 255.04 143.776 253.984C145.024 252.896 145.648 251.408 145.648 249.52C145.648 247.376 144.912 245.84 143.44 244.912C142 243.984 139.84 243.52 136.96 243.52H132.208ZM138.304 271.6C144.192 271.6 147.136 269.36 147.136 264.88C147.136 262.512 146.4 260.752 144.928 259.6C143.488 258.448 141.568 257.872 139.168 257.872H132.208V271.6H138.304ZM173.376 268.432C173.376 269.744 173.536 270.688 173.856 271.264C174.208 271.84 174.752 272.272 175.488 272.56L174.864 274.528C173.712 274.304 172.816 273.872 172.176 273.232C171.568 272.592 171.168 271.616 170.976 270.304C169.248 273.12 166.64 274.528 163.152 274.528C160.752 274.528 158.848 273.856 157.44 272.512C156.064 271.136 155.376 269.312 155.376 267.04C155.376 264.448 156.288 262.448 158.112 261.04C159.968 259.632 162.528 258.928 165.792 258.928H170.592V256.48C170.592 254.464 170.144 253.008 169.248 252.112C168.352 251.184 166.864 250.72 164.784 250.72C162.864 250.72 160.592 251.2 157.968 252.16L157.248 250.048C160.064 248.928 162.704 248.368 165.168 248.368C170.64 248.368 173.376 251.024 173.376 256.336V268.432ZM163.632 272.272C166.64 272.272 168.96 270.8 170.592 267.856V260.944H166.224C163.664 260.944 161.712 261.44 160.368 262.432C159.024 263.424 158.352 264.912 158.352 266.896C158.352 268.624 158.816 269.952 159.743 270.88C160.672 271.808 161.968 272.272 163.632 272.272ZM194.598 248.368C196.87 248.368 198.598 249.04 199.782 250.384C200.998 251.728 201.606 253.616 201.606 256.048V274H198.822V256.432C198.822 254.416 198.422 252.944 197.622 252.016C196.822 251.088 195.638 250.624 194.07 250.624C192.47 250.624 191.046 251.072 189.798 251.968C188.582 252.832 187.414 254.112 186.294 255.808V274H183.51V248.896H185.91L186.198 253.168C187.222 251.664 188.438 250.496 189.846 249.664C191.254 248.8 192.838 248.368 194.598 248.368ZM230.213 249.424C228.677 249.84 226.357 250.08 223.253 250.144C226.101 251.488 227.525 253.76 227.525 256.96C227.525 259.424 226.709 261.424 225.077 262.96C223.445 264.464 221.237 265.216 218.453 265.216C217.205 265.216 216.117 265.056 215.189 264.736C214.581 265.088 214.101 265.52 213.749 266.032C213.429 266.512 213.269 267.04 213.269 267.616C213.269 269.344 214.597 270.208 217.253 270.208H221.333C223.797 270.208 225.749 270.816 227.189 272.032C228.661 273.216 229.397 274.752 229.397 276.64C229.397 278.944 228.485 280.72 226.661 281.968C224.837 283.216 222.117 283.84 218.501 283.84C214.757 283.84 212.069 283.264 210.437 282.112C208.837 280.992 208.037 279.168 208.037 276.64H210.629C210.661 277.856 210.917 278.816 211.397 279.52C211.877 280.224 212.677 280.736 213.797 281.056C214.917 281.376 216.485 281.536 218.501 281.536C221.317 281.536 223.365 281.12 224.645 280.288C225.925 279.488 226.565 278.32 226.565 276.784C226.565 275.44 226.069 274.416 225.077 273.712C224.085 272.976 222.693 272.608 220.901 272.608H216.821C214.837 272.608 213.301 272.192 212.213 271.36C211.157 270.528 210.629 269.472 210.629 268.192C210.629 267.36 210.869 266.576 211.349 265.84C211.829 265.104 212.501 264.464 213.365 263.92C211.925 263.184 210.853 262.24 210.149 261.088C209.477 259.936 209.141 258.528 209.141 256.864C209.141 254.336 209.989 252.288 211.685 250.72C213.381 249.152 215.605 248.368 218.357 248.368C221.397 248.4 223.605 248.288 224.981 248.032C226.389 247.776 227.845 247.344 229.349 246.736L230.213 249.424ZM218.357 250.528C216.277 250.528 214.693 251.104 213.605 252.256C212.549 253.408 212.021 254.944 212.021 256.864C212.021 258.848 212.581 260.4 213.701 261.52C214.853 262.64 216.405 263.2 218.357 263.2C220.405 263.2 221.973 262.656 223.061 261.568C224.149 260.448 224.693 258.896 224.693 256.912C224.693 254.896 224.149 253.328 223.061 252.208C222.005 251.088 220.437 250.528 218.357 250.528ZM239.858 274.528C238.482 274.528 237.394 274.128 236.594 273.328C235.826 272.528 235.442 271.344 235.442 269.776V238.672L238.226 238.336V269.68C238.226 271.312 238.898 272.128 240.242 272.128C240.914 272.128 241.49 272.016 241.97 271.792L242.738 273.856C241.842 274.304 240.882 274.528 239.858 274.528ZM264.688 268.432C264.688 269.744 264.848 270.688 265.168 271.264C265.52 271.84 266.064 272.272 266.8 272.56L266.176 274.528C265.024 274.304 264.128 273.872 263.488 273.232C262.88 272.592 262.48 271.616 262.288 270.304C260.56 273.12 257.952 274.528 254.464 274.528C252.064 274.528 250.16 273.856 248.752 272.512C247.376 271.136 246.688 269.312 246.688 267.04C246.688 264.448 247.6 262.448 249.424 261.04C251.28 259.632 253.84 258.928 257.104 258.928H261.904V256.48C261.904 254.464 261.456 253.008 260.56 252.112C259.664 251.184 258.176 250.72 256.096 250.72C254.176 250.72 251.904 251.2 249.28 252.16L248.56 250.048C251.376 248.928 254.016 248.368 256.48 248.368C261.952 248.368 264.688 251.024 264.688 256.336V268.432ZM254.944 272.272C257.952 272.272 260.272 270.8 261.904 267.856V260.944H257.536C254.976 260.944 253.024 261.44 251.68 262.432C250.336 263.424 249.664 264.912 249.664 266.896C249.664 268.624 250.128 269.952 251.056 270.88C251.984 271.808 253.28 272.272 254.944 272.272ZM292.726 238.672V274H290.326L289.99 270.16C288.262 273.072 285.75 274.528 282.454 274.528C279.542 274.528 277.238 273.376 275.542 271.072C273.878 268.736 273.046 265.568 273.046 261.568C273.046 258.976 273.43 256.688 274.198 254.704C274.998 252.72 276.134 251.168 277.606 250.048C279.11 248.928 280.87 248.368 282.886 248.368C285.734 248.368 288.086 249.504 289.942 251.776V238.336L292.726 238.672ZM282.886 272.224C284.486 272.224 285.83 271.84 286.918 271.072C288.038 270.304 289.046 269.136 289.942 267.568V254.464C288.15 251.936 285.958 250.672 283.366 250.672C281.094 250.672 279.286 251.616 277.942 253.504C276.63 255.392 275.99 258.064 276.022 261.52C276.022 264.976 276.63 267.632 277.846 269.488C279.062 271.312 280.742 272.224 282.886 272.224ZM320.709 260.512C320.709 261.216 320.677 261.888 320.613 262.528H303.861C304.021 265.792 304.789 268.224 306.165 269.824C307.573 271.392 309.413 272.176 311.685 272.176C312.997 272.176 314.149 271.984 315.141 271.6C316.165 271.184 317.269 270.544 318.453 269.68L319.749 271.456C318.501 272.48 317.221 273.248 315.909 273.76C314.597 274.272 313.141 274.528 311.541 274.528C308.213 274.528 305.605 273.392 303.717 271.12C301.829 268.848 300.885 265.696 300.885 261.664C300.885 259.008 301.285 256.688 302.085 254.704C302.917 252.688 304.085 251.136 305.589 250.048C307.125 248.928 308.901 248.368 310.917 248.368C314.117 248.368 316.549 249.456 318.213 251.632C319.877 253.776 320.709 256.736 320.709 260.512ZM317.973 259.648C317.973 256.832 317.381 254.64 316.197 253.072C315.045 251.472 313.317 250.672 311.013 250.672C308.933 250.672 307.253 251.472 305.973 253.072C304.693 254.672 303.989 257.104 303.861 260.368H317.973V259.648ZM334.779 248.368C336.347 248.368 337.771 248.608 339.051 249.088C340.331 249.536 341.579 250.224 342.795 251.152L341.499 252.976C340.347 252.176 339.259 251.6 338.235 251.248C337.211 250.864 336.091 250.672 334.875 250.672C333.211 250.672 331.867 251.056 330.843 251.824C329.819 252.592 329.307 253.616 329.307 254.896C329.307 256.112 329.739 257.056 330.603 257.728C331.499 258.4 333.099 259.04 335.403 259.648C338.251 260.384 340.299 261.312 341.547 262.432C342.827 263.552 343.467 265.152 343.467 267.232C343.467 269.472 342.603 271.248 340.875 272.56C339.147 273.872 336.987 274.528 334.395 274.528C332.475 274.528 330.795 274.256 329.355 273.712C327.915 273.136 326.603 272.336 325.419 271.312L326.955 269.536C328.075 270.432 329.211 271.104 330.363 271.552C331.547 271.968 332.875 272.176 334.347 272.176C336.203 272.176 337.691 271.76 338.811 270.928C339.963 270.064 340.539 268.88 340.539 267.376C340.539 266.352 340.347 265.52 339.963 264.88C339.579 264.24 338.923 263.696 337.995 263.248C337.067 262.768 335.707 262.288 333.915 261.808C331.259 261.104 329.339 260.224 328.155 259.168C327.003 258.112 326.427 256.704 326.427 254.944C326.427 253.696 326.795 252.576 327.531 251.584C328.267 250.56 329.259 249.776 330.507 249.232C331.787 248.656 333.211 248.368 334.779 248.368ZM361.989 248.368C364.229 248.368 365.957 249.056 367.173 250.432C368.389 251.776 368.997 253.648 368.997 256.048V274H366.213V256.432C366.213 252.56 364.629 250.624 361.461 250.624C359.861 250.624 358.437 251.072 357.189 251.968C355.973 252.832 354.805 254.112 353.685 255.808V274H350.901V238.672L353.685 238.336V253.072C355.925 249.936 358.693 248.368 361.989 248.368Z" fill="white"/>
<rect x="3" y="306" width="99" height="101" stroke="#C5FA9A" stroke-width="6"/>
<rect x="102" y="306" width="466" height="101" stroke="#C5FA9A" stroke-width="6"/>
<path d="M41.5672 342.552C44.8632 342.552 47.3592 343.96 49.0552 346.776C50.7512 349.56 51.5992 353.656 51.5992 359.064C51.5992 364.44 50.7352 368.536 49.0072 371.352C47.3112 374.136 44.8312 375.528 41.5672 375.528C38.2712 375.528 35.7752 374.136 34.0792 371.352C32.3832 368.536 31.5352 364.424 31.5352 359.016C31.5352 353.608 32.3832 349.512 34.0792 346.728C35.7752 343.944 38.2712 342.552 41.5672 342.552ZM41.5672 344.856C36.7992 344.856 34.4152 349.576 34.4152 359.016C34.4152 368.488 36.7992 373.224 41.5672 373.224C43.9032 373.224 45.6632 372.072 46.8472 369.768C48.0632 367.464 48.6712 363.896 48.6712 359.064C48.6712 354.232 48.0632 350.664 46.8472 348.36C45.6632 346.024 43.9032 344.856 41.5672 344.856ZM64.8971 342.552C66.6891 342.552 68.2411 342.904 69.5531 343.608C70.8971 344.312 71.9211 345.272 72.6251 346.488C73.3291 347.672 73.6811 349.016 73.6811 350.52C73.6811 352.6 73.0891 354.296 71.9051 355.608C70.7531 356.888 69.2491 357.688 67.3931 358.008C69.4731 358.104 71.1851 358.856 72.5291 360.264C73.9051 361.64 74.5931 363.544 74.5931 365.976C74.5931 367.832 74.1771 369.48 73.3451 370.92C72.5131 372.36 71.3131 373.496 69.7451 374.328C68.2091 375.128 66.4331 375.528 64.4171 375.528C60.7051 375.528 57.6491 374.152 55.2491 371.4L57.0251 369.816C58.1131 371 59.2331 371.864 60.3851 372.408C61.5691 372.92 62.8811 373.176 64.3211 373.176C66.6251 373.176 68.4331 372.52 69.7451 371.208C71.0571 369.896 71.7131 368.168 71.7131 366.024C71.7131 361.544 69.3131 359.304 64.5131 359.304H62.4011L62.7851 357.048H64.3211C66.1451 357.048 67.6971 356.504 68.9771 355.416C70.2571 354.296 70.8971 352.712 70.8971 350.664C70.8971 348.904 70.3371 347.512 69.2171 346.488C68.0971 345.432 66.6091 344.904 64.7531 344.904C63.4091 344.904 62.1771 345.144 61.0571 345.624C59.9371 346.072 58.8011 346.824 57.6491 347.88L56.1611 346.152C57.4411 344.936 58.7851 344.04 60.1931 343.464C61.6011 342.856 63.1691 342.552 64.8971 342.552Z" fill="white"/>
<path d="M140.464 341.592C142.288 341.592 143.824 341.848 145.072 342.36C146.352 342.84 147.632 343.592 148.912 344.616L147.376 346.536C146.256 345.64 145.184 345 144.16 344.616C143.136 344.232 141.968 344.04 140.656 344.04C137.552 344.04 135.024 345.224 133.072 347.592C131.152 349.96 130.192 353.608 130.192 358.536C130.192 361.736 130.64 364.424 131.536 366.6C132.432 368.776 133.648 370.392 135.184 371.448C136.752 372.472 138.528 372.984 140.512 372.984C142.08 372.984 143.408 372.76 144.496 372.312C145.584 371.832 146.688 371.144 147.808 370.248L149.296 372.12C146.896 374.392 143.936 375.528 140.416 375.528C137.856 375.528 135.568 374.872 133.552 373.56C131.568 372.248 130 370.328 128.848 367.8C127.728 365.24 127.168 362.152 127.168 358.536C127.168 354.92 127.76 351.848 128.944 349.32C130.128 346.76 131.712 344.84 133.696 343.56C135.712 342.248 137.968 341.592 140.464 341.592ZM166.098 349.368C168.338 349.368 170.066 350.056 171.282 351.432C172.498 352.776 173.106 354.648 173.106 357.048V375H170.322V357.432C170.322 353.56 168.738 351.624 165.57 351.624C163.97 351.624 162.546 352.072 161.298 352.968C160.082 353.832 158.914 355.112 157.794 356.808V375H155.01V339.672L157.794 339.336V354.072C160.034 350.936 162.802 349.368 166.098 349.368ZM185.825 349.896V375H183.041V349.896H185.825ZM184.385 338.856C185.025 338.856 185.537 339.048 185.921 339.432C186.305 339.816 186.497 340.296 186.497 340.872C186.497 341.448 186.305 341.928 185.921 342.312C185.537 342.696 185.025 342.888 184.385 342.888C183.777 342.888 183.281 342.696 182.897 342.312C182.513 341.928 182.321 341.448 182.321 340.872C182.321 340.296 182.513 339.816 182.897 339.432C183.281 339.048 183.777 338.856 184.385 338.856ZM207.067 349.368C209.339 349.368 211.067 350.04 212.251 351.384C213.467 352.728 214.075 354.616 214.075 357.048V375H211.291V357.432C211.291 355.416 210.891 353.944 210.091 353.016C209.291 352.088 208.107 351.624 206.539 351.624C204.939 351.624 203.515 352.072 202.267 352.968C201.051 353.832 199.883 355.112 198.763 356.808V375H195.979V349.896H198.379L198.667 354.168C199.691 352.664 200.907 351.496 202.315 350.664C203.723 349.8 205.307 349.368 207.067 349.368ZM239.61 369.432C239.61 370.744 239.77 371.688 240.09 372.264C240.442 372.84 240.986 373.272 241.722 373.56L241.098 375.528C239.946 375.304 239.05 374.872 238.41 374.232C237.802 373.592 237.402 372.616 237.21 371.304C235.482 374.12 232.874 375.528 229.386 375.528C226.986 375.528 225.082 374.856 223.674 373.512C222.298 372.136 221.61 370.312 221.61 368.04C221.61 365.448 222.522 363.448 224.346 362.04C226.202 360.632 228.762 359.928 232.026 359.928H236.826V357.48C236.826 355.464 236.378 354.008 235.482 353.112C234.586 352.184 233.098 351.72 231.018 351.72C229.098 351.72 226.826 352.2 224.202 353.16L223.482 351.048C226.298 349.928 228.938 349.368 231.402 349.368C236.874 349.368 239.61 352.024 239.61 357.336V369.432ZM229.866 373.272C232.874 373.272 235.194 371.8 236.826 368.856V361.944H232.458C229.898 361.944 227.946 362.44 226.602 363.432C225.258 364.424 224.586 365.912 224.586 367.896C224.586 369.624 225.05 370.952 225.978 371.88C226.906 372.808 228.202 373.272 229.866 373.272Z" fill="white"/>
<rect x="3" y="407" width="99" height="101" stroke="#C5FA9A" stroke-width="6"/>
<rect x="102" y="407" width="466" height="101" stroke="#C5FA9A" stroke-width="6"/>
<path d="M40.5828 443.552C43.8788 443.552 46.3748 444.96 48.0708 447.776C49.7668 450.56 50.6148 454.656 50.6148 460.064C50.6148 465.44 49.7508 469.536 48.0228 472.352C46.3268 475.136 43.8468 476.528 40.5828 476.528C37.2868 476.528 34.7908 475.136 33.0948 472.352C31.3988 469.536 30.5508 465.424 30.5508 460.016C30.5508 454.608 31.3988 450.512 33.0948 447.728C34.7908 444.944 37.2868 443.552 40.5828 443.552ZM40.5828 445.856C35.8148 445.856 33.4308 450.576 33.4308 460.016C33.4308 469.488 35.8148 474.224 40.5828 474.224C42.9188 474.224 44.6788 473.072 45.8628 470.768C47.0788 468.464 47.6868 464.896 47.6868 460.064C47.6868 455.232 47.0788 451.664 45.8628 449.36C44.6788 447.024 42.9188 445.856 40.5828 445.856ZM76.9574 465.296V467.6H72.6374V476H69.9014V467.6H55.9334V465.536L65.6774 443.552L68.0294 444.512L58.9094 465.296H69.9014L70.2374 455.936H72.6374V465.296H76.9574Z" fill="white"/>
<path d="M140.896 442.592C142.752 442.592 144.368 442.864 145.744 443.408C147.12 443.92 148.512 444.736 149.92 445.856L148.192 447.68C147.008 446.752 145.856 446.08 144.736 445.664C143.616 445.248 142.336 445.04 140.896 445.04C139.008 445.04 137.248 445.536 135.616 446.528C134.016 447.52 132.704 449.104 131.68 451.28C130.688 453.424 130.192 456.144 130.192 459.44C130.192 464.336 131.12 468 132.976 470.432C134.832 472.864 137.424 474.08 140.752 474.08C143.312 474.08 145.616 473.504 147.664 472.352V460.688H141.232L140.896 458.288H150.496V473.84C147.36 475.632 144.112 476.528 140.752 476.528C136.56 476.528 133.248 475.072 130.816 472.16C128.384 469.248 127.168 465.008 127.168 459.44C127.168 455.824 127.792 452.752 129.04 450.224C130.32 447.664 132 445.76 134.08 444.512C136.192 443.232 138.464 442.592 140.896 442.592ZM168.504 450.368C169.496 450.368 170.328 450.464 171 450.656L170.472 453.296C169.768 453.104 169.032 453.008 168.264 453.008C166.568 453.008 165.192 453.632 164.136 454.88C163.112 456.096 162.248 458.016 161.544 460.64V476H158.76V450.896H161.16L161.4 456.512C162.072 454.432 162.984 452.896 164.136 451.904C165.32 450.88 166.776 450.368 168.504 450.368ZM193.021 462.512C193.021 463.216 192.989 463.888 192.925 464.528H176.173C176.333 467.792 177.101 470.224 178.477 471.824C179.885 473.392 181.725 474.176 183.997 474.176C185.309 474.176 186.461 473.984 187.453 473.6C188.477 473.184 189.581 472.544 190.765 471.68L192.061 473.456C190.813 474.48 189.533 475.248 188.221 475.76C186.909 476.272 185.453 476.528 183.853 476.528C180.525 476.528 177.917 475.392 176.029 473.12C174.141 470.848 173.197 467.696 173.197 463.664C173.197 461.008 173.597 458.688 174.397 456.704C175.229 454.688 176.397 453.136 177.901 452.048C179.437 450.928 181.213 450.368 183.229 450.368C186.429 450.368 188.861 451.456 190.525 453.632C192.189 455.776 193.021 458.736 193.021 462.512ZM190.285 461.648C190.285 458.832 189.693 456.64 188.509 455.072C187.357 453.472 185.629 452.672 183.325 452.672C181.245 452.672 179.565 453.472 178.285 455.072C177.005 456.672 176.301 459.104 176.173 462.368H190.285V461.648ZM218.755 462.512C218.755 463.216 218.723 463.888 218.659 464.528H201.907C202.067 467.792 202.835 470.224 204.211 471.824C205.619 473.392 207.459 474.176 209.731 474.176C211.043 474.176 212.195 473.984 213.187 473.6C214.211 473.184 215.315 472.544 216.499 471.68L217.795 473.456C216.547 474.48 215.267 475.248 213.955 475.76C212.643 476.272 211.187 476.528 209.587 476.528C206.259 476.528 203.651 475.392 201.763 473.12C199.875 470.848 198.931 467.696 198.931 463.664C198.931 461.008 199.331 458.688 200.131 456.704C200.963 454.688 202.131 453.136 203.635 452.048C205.171 450.928 206.947 450.368 208.963 450.368C212.163 450.368 214.595 451.456 216.259 453.632C217.923 455.776 218.755 458.736 218.755 462.512ZM216.019 461.648C216.019 458.832 215.427 456.64 214.243 455.072C213.091 453.472 211.363 452.672 209.059 452.672C206.979 452.672 205.299 453.472 204.019 455.072C202.739 456.672 202.035 459.104 201.907 462.368H216.019V461.648ZM237.77 450.368C240.042 450.368 241.77 451.04 242.954 452.384C244.17 453.728 244.778 455.616 244.778 458.048V476H241.994V458.432C241.994 456.416 241.594 454.944 240.794 454.016C239.994 453.088 238.81 452.624 237.242 452.624C235.642 452.624 234.218 453.072 232.97 453.968C231.754 454.832 230.586 456.112 229.466 457.808V476H226.682V450.896H229.082L229.37 455.168C230.394 453.664 231.61 452.496 233.018 451.664C234.426 450.8 236.01 450.368 237.77 450.368ZM258.889 476.528C257.513 476.528 256.425 476.128 255.625 475.328C254.857 474.528 254.473 473.344 254.473 471.776V440.672L257.257 440.336V471.68C257.257 473.312 257.929 474.128 259.273 474.128C259.945 474.128 260.521 474.016 261.001 473.792L261.769 475.856C260.873 476.304 259.913 476.528 258.889 476.528ZM283.719 470.432C283.719 471.744 283.879 472.688 284.199 473.264C284.551 473.84 285.095 474.272 285.831 474.56L285.207 476.528C284.055 476.304 283.159 475.872 282.519 475.232C281.911 474.592 281.511 473.616 281.319 472.304C279.591 475.12 276.983 476.528 273.495 476.528C271.095 476.528 269.191 475.856 267.783 474.512C266.407 473.136 265.719 471.312 265.719 469.04C265.719 466.448 266.631 464.448 268.455 463.04C270.311 461.632 272.871 460.928 276.135 460.928H280.935V458.48C280.935 456.464 280.487 455.008 279.591 454.112C278.695 453.184 277.207 452.72 275.127 452.72C273.207 452.72 270.935 453.2 268.311 454.16L267.591 452.048C270.407 450.928 273.047 450.368 275.511 450.368C280.983 450.368 283.719 453.024 283.719 458.336V470.432ZM273.975 474.272C276.983 474.272 279.303 472.8 280.935 469.856V462.944H276.567C274.007 462.944 272.055 463.44 270.711 464.432C269.367 465.424 268.695 466.912 268.695 468.896C268.695 470.624 269.159 471.952 270.087 472.88C271.015 473.808 272.311 474.272 273.975 474.272ZM304.942 450.368C307.214 450.368 308.942 451.04 310.126 452.384C311.342 453.728 311.95 455.616 311.95 458.048V476H309.166V458.432C309.166 456.416 308.766 454.944 307.966 454.016C307.166 453.088 305.982 452.624 304.414 452.624C302.814 452.624 301.39 453.072 300.142 453.968C298.926 454.832 297.758 456.112 296.638 457.808V476H293.854V450.896H296.254L296.542 455.168C297.566 453.664 298.782 452.496 300.19 451.664C301.598 450.8 303.182 450.368 304.942 450.368ZM339.789 440.672V476H337.389L337.053 472.16C335.325 475.072 332.813 476.528 329.517 476.528C326.605 476.528 324.301 475.376 322.605 473.072C320.941 470.736 320.109 467.568 320.109 463.568C320.109 460.976 320.493 458.688 321.261 456.704C322.061 454.72 323.197 453.168 324.669 452.048C326.173 450.928 327.933 450.368 329.949 450.368C332.797 450.368 335.149 451.504 337.005 453.776V440.336L339.789 440.672ZM329.949 474.224C331.549 474.224 332.893 473.84 333.981 473.072C335.101 472.304 336.109 471.136 337.005 469.568V456.464C335.213 453.936 333.021 452.672 330.429 452.672C328.157 452.672 326.349 453.616 325.005 455.504C323.693 457.392 323.053 460.064 323.085 463.52C323.085 466.976 323.693 469.632 324.909 471.488C326.125 473.312 327.805 474.224 329.949 474.224Z" fill="white"/>
<rect x="3" y="508" width="99" height="101" stroke="#C5FA9A" stroke-width="6"/>
<rect x="102" y="508" width="466" height="101" stroke="#C5FA9A" stroke-width="6"/>
<path d="M41.3094 544.552C44.6054 544.552 47.1014 545.96 48.7974 548.776C50.4934 551.56 51.3414 555.656 51.3414 561.064C51.3414 566.44 50.4774 570.536 48.7494 573.352C47.0534 576.136 44.5734 577.528 41.3094 577.528C38.0134 577.528 35.5174 576.136 33.8214 573.352C32.1254 570.536 31.2774 566.424 31.2774 561.016C31.2774 555.608 32.1254 551.512 33.8214 548.728C35.5174 545.944 38.0134 544.552 41.3094 544.552ZM41.3094 546.856C36.5414 546.856 34.1574 551.576 34.1574 561.016C34.1574 570.488 36.5414 575.224 41.3094 575.224C43.6454 575.224 45.4054 574.072 46.5894 571.768C47.8054 569.464 48.4134 565.896 48.4134 561.064C48.4134 556.232 47.8054 552.664 46.5894 550.36C45.4054 548.024 43.6454 546.856 41.3094 546.856ZM73.94 547.384H60.98V558.28C62.74 557.288 64.564 556.792 66.452 556.792C69.204 556.792 71.38 557.688 72.98 559.48C74.612 561.24 75.428 563.656 75.428 566.728C75.428 568.808 74.996 570.68 74.132 572.344C73.3 573.976 72.1 575.256 70.532 576.184C68.996 577.08 67.204 577.528 65.156 577.528C61.604 577.528 58.596 576.248 56.132 573.688L57.86 572.008C58.884 573.096 59.972 573.896 61.124 574.408C62.276 574.92 63.62 575.176 65.156 575.176C67.428 575.176 69.22 574.424 70.532 572.92C71.844 571.384 72.5 569.304 72.5 566.68C72.5 564.12 71.892 562.216 70.676 560.968C69.492 559.688 67.876 559.048 65.828 559.048C64.804 559.048 63.892 559.176 63.092 559.432C62.324 559.656 61.46 560.04 60.5 560.584H58.292V545.08H74.372L73.94 547.384Z" fill="white"/>
<path d="M132.208 544.12V577H129.328V544.12H132.208ZM153.723 551.368C155.995 551.368 157.723 552.04 158.907 553.384C160.123 554.728 160.731 556.616 160.731 559.048V577H157.947V559.432C157.947 557.416 157.547 555.944 156.747 555.016C155.947 554.088 154.763 553.624 153.195 553.624C151.595 553.624 150.171 554.072 148.923 554.968C147.707 555.832 146.539 557.112 145.419 558.808V577H142.635V551.896H145.035L145.323 556.168C146.347 554.664 147.563 553.496 148.971 552.664C150.379 551.8 151.963 551.368 153.723 551.368ZM188.57 541.672V577H186.17L185.834 573.16C184.106 576.072 181.594 577.528 178.298 577.528C175.386 577.528 173.082 576.376 171.386 574.072C169.722 571.736 168.89 568.568 168.89 564.568C168.89 561.976 169.274 559.688 170.042 557.704C170.842 555.72 171.978 554.168 173.45 553.048C174.954 551.928 176.714 551.368 178.73 551.368C181.578 551.368 183.93 552.504 185.786 554.776V541.336L188.57 541.672ZM178.73 575.224C180.33 575.224 181.674 574.84 182.762 574.072C183.882 573.304 184.89 572.136 185.786 570.568V557.464C183.994 554.936 181.802 553.672 179.21 553.672C176.938 553.672 175.13 554.616 173.786 556.504C172.474 558.392 171.834 561.064 171.866 564.52C171.866 567.976 172.474 570.632 173.69 572.488C174.906 574.312 176.586 575.224 178.73 575.224ZM201.528 551.896V577H198.744V551.896H201.528ZM200.088 540.856C200.728 540.856 201.24 541.048 201.624 541.432C202.008 541.816 202.2 542.296 202.2 542.872C202.2 543.448 202.008 543.928 201.624 544.312C201.24 544.696 200.728 544.888 200.088 544.888C199.48 544.888 198.984 544.696 198.6 544.312C198.216 543.928 198.024 543.448 198.024 542.872C198.024 542.296 198.216 541.816 198.6 541.432C198.984 541.048 199.48 540.856 200.088 540.856ZM227.282 571.432C227.282 572.744 227.442 573.688 227.762 574.264C228.114 574.84 228.658 575.272 229.394 575.56L228.77 577.528C227.618 577.304 226.722 576.872 226.082 576.232C225.474 575.592 225.074 574.616 224.882 573.304C223.154 576.12 220.546 577.528 217.058 577.528C214.658 577.528 212.754 576.856 211.346 575.512C209.97 574.136 209.282 572.312 209.282 570.04C209.282 567.448 210.194 565.448 212.018 564.04C213.874 562.632 216.434 561.928 219.698 561.928H224.498V559.48C224.498 557.464 224.05 556.008 223.154 555.112C222.258 554.184 220.77 553.72 218.69 553.72C216.77 553.72 214.498 554.2 211.874 555.16L211.154 553.048C213.97 551.928 216.61 551.368 219.074 551.368C224.546 551.368 227.282 554.024 227.282 559.336V571.432ZM217.538 575.272C220.546 575.272 222.866 573.8 224.498 570.856V563.944H220.13C217.57 563.944 215.618 564.44 214.274 565.432C212.93 566.424 212.258 567.912 212.258 569.896C212.258 571.624 212.722 572.952 213.65 573.88C214.578 574.808 215.874 575.272 217.538 575.272Z" fill="white"/>
<rect x="3" y="609" width="99" height="101" stroke="#C5FA9A" stroke-width="6"/>
<rect x="102" y="609" width="466" height="101" stroke="#C5FA9A" stroke-width="6"/>
<path d="M40.4188 645.552C43.7148 645.552 46.2108 646.96 47.9068 649.776C49.6028 652.56 50.4508 656.656 50.4508 662.064C50.4508 667.44 49.5868 671.536 47.8588 674.352C46.1628 677.136 43.6828 678.528 40.4188 678.528C37.1228 678.528 34.6268 677.136 32.9308 674.352C31.2348 671.536 30.3867 667.424 30.3867 662.016C30.3867 656.608 31.2348 652.512 32.9308 649.728C34.6268 646.944 37.1228 645.552 40.4188 645.552ZM40.4188 647.856C35.6508 647.856 33.2668 652.576 33.2668 662.016C33.2668 671.488 35.6508 676.224 40.4188 676.224C42.7548 676.224 44.5148 675.072 45.6988 672.768C46.9148 670.464 47.5228 666.896 47.5228 662.064C47.5228 657.232 46.9148 653.664 45.6988 651.36C44.5148 649.024 42.7548 647.856 40.4188 647.856ZM67.8174 657.216C70.2814 657.216 72.3134 658.08 73.9134 659.808C75.5134 661.504 76.3134 663.984 76.3134 667.248C76.3134 669.52 75.8974 671.52 75.0654 673.248C74.2654 674.944 73.1454 676.256 71.7054 677.184C70.2974 678.08 68.6974 678.528 66.9054 678.528C63.3854 678.528 60.8094 677.184 59.1774 674.496C57.5774 671.776 56.7774 668.144 56.7774 663.6C56.7774 659.92 57.2414 656.72 58.1694 654C59.0974 651.28 60.4254 649.2 62.1534 647.76C63.8814 646.288 65.9294 645.552 68.2974 645.552C70.4414 645.552 72.4254 646.176 74.2494 647.424L73.0494 649.344C71.5134 648.352 69.9134 647.856 68.2494 647.856C65.6574 647.856 63.5934 649.152 62.0574 651.744C60.5214 654.336 59.7054 657.728 59.6094 661.92C61.7534 658.784 64.4894 657.216 67.8174 657.216ZM66.9054 676.224C69.0174 676.224 70.6334 675.424 71.7534 673.824C72.9054 672.192 73.4814 670.032 73.4814 667.344C73.4814 664.688 72.9214 662.72 71.8014 661.44C70.7134 660.16 69.2574 659.52 67.4334 659.52C65.8334 659.52 64.3614 660 63.0174 660.96C61.7054 661.888 60.5694 663.168 59.6094 664.8C59.7054 668.512 60.3294 671.344 61.4814 673.296C62.6334 675.248 64.4414 676.224 66.9054 676.224Z" fill="white"/>
<path d="M132.208 645.12V678H129.328V645.12H132.208ZM153.723 652.368C155.995 652.368 157.723 653.04 158.907 654.384C160.123 655.728 160.731 657.616 160.731 660.048V678H157.947V660.432C157.947 658.416 157.547 656.944 156.747 656.016C155.947 655.088 154.763 654.624 153.195 654.624C151.595 654.624 150.171 655.072 148.923 655.968C147.707 656.832 146.539 658.112 145.419 659.808V678H142.635V652.896H145.035L145.323 657.168C146.347 655.664 147.563 654.496 148.971 653.664C150.379 652.8 151.963 652.368 153.723 652.368ZM188.57 642.672V678H186.17L185.834 674.16C184.106 677.072 181.594 678.528 178.298 678.528C175.386 678.528 173.082 677.376 171.386 675.072C169.722 672.736 168.89 669.568 168.89 665.568C168.89 662.976 169.274 660.688 170.042 658.704C170.842 656.72 171.978 655.168 173.45 654.048C174.954 652.928 176.714 652.368 178.73 652.368C181.578 652.368 183.93 653.504 185.786 655.776V642.336L188.57 642.672ZM178.73 676.224C180.33 676.224 181.674 675.84 182.762 675.072C183.882 674.304 184.89 673.136 185.786 671.568V658.464C183.994 655.936 181.802 654.672 179.21 654.672C176.938 654.672 175.13 655.616 173.786 657.504C172.474 659.392 171.834 662.064 171.866 665.52C171.866 668.976 172.474 671.632 173.69 673.488C174.906 675.312 176.586 676.224 178.73 676.224ZM207.384 652.368C210.712 652.368 213.304 653.52 215.16 655.824C217.048 658.096 217.992 661.28 217.992 665.376C217.992 669.44 217.032 672.656 215.112 675.024C213.224 677.36 210.632 678.528 207.336 678.528C204.008 678.528 201.4 677.376 199.512 675.072C197.656 672.736 196.728 669.536 196.728 665.472C196.728 662.816 197.16 660.496 198.024 658.512C198.888 656.528 200.12 655.008 201.72 653.952C203.32 652.896 205.208 652.368 207.384 652.368ZM207.384 654.72C204.952 654.72 203.064 655.632 201.72 657.456C200.376 659.28 199.704 661.952 199.704 665.472C199.704 668.96 200.36 671.616 201.672 673.44C203.016 675.264 204.904 676.176 207.336 676.176C209.768 676.176 211.656 675.264 213 673.44C214.376 671.616 215.064 668.928 215.064 665.376C215.064 661.888 214.392 659.248 213.048 657.456C211.736 655.632 209.848 654.72 207.384 654.72ZM237.254 652.368C239.526 652.368 241.254 653.04 242.438 654.384C243.654 655.728 244.262 657.616 244.262 660.048V678H241.478V660.432C241.478 658.416 241.078 656.944 240.278 656.016C239.478 655.088 238.294 654.624 236.726 654.624C235.126 654.624 233.702 655.072 232.454 655.968C231.238 656.832 230.07 658.112 228.95 659.808V678H226.166V652.896H228.566L228.854 657.168C229.878 655.664 231.094 654.496 232.502 653.664C233.91 652.8 235.494 652.368 237.254 652.368ZM272.005 664.512C272.005 665.216 271.973 665.888 271.909 666.528H255.157C255.317 669.792 256.085 672.224 257.461 673.824C258.869 675.392 260.709 676.176 262.981 676.176C264.293 676.176 265.445 675.984 266.437 675.6C267.461 675.184 268.565 674.544 269.749 673.68L271.045 675.456C269.797 676.48 268.517 677.248 267.205 677.76C265.893 678.272 264.437 678.528 262.837 678.528C259.509 678.528 256.901 677.392 255.013 675.12C253.125 672.848 252.181 669.696 252.181 665.664C252.181 663.008 252.581 660.688 253.381 658.704C254.213 656.688 255.381 655.136 256.885 654.048C258.421 652.928 260.197 652.368 262.213 652.368C265.413 652.368 267.845 653.456 269.509 655.632C271.173 657.776 272.005 660.736 272.005 664.512ZM269.269 663.648C269.269 660.832 268.677 658.64 267.493 657.072C266.341 655.472 264.613 654.672 262.309 654.672C260.229 654.672 258.549 655.472 257.269 657.072C255.989 658.672 255.285 661.104 255.157 664.368H269.269V663.648ZM286.076 652.368C287.644 652.368 289.068 652.608 290.348 653.088C291.628 653.536 292.876 654.224 294.092 655.152L292.796 656.976C291.644 656.176 290.556 655.6 289.532 655.248C288.508 654.864 287.388 654.672 286.172 654.672C284.508 654.672 283.164 655.056 282.14 655.824C281.116 656.592 280.604 657.616 280.604 658.896C280.604 660.112 281.036 661.056 281.9 661.728C282.796 662.4 284.396 663.04 286.7 663.648C289.548 664.384 291.596 665.312 292.844 666.432C294.124 667.552 294.764 669.152 294.764 671.232C294.764 673.472 293.9 675.248 292.172 676.56C290.444 677.872 288.284 678.528 285.692 678.528C283.772 678.528 282.092 678.256 280.652 677.712C279.212 677.136 277.9 676.336 276.716 675.312L278.252 673.536C279.372 674.432 280.508 675.104 281.66 675.552C282.844 675.968 284.172 676.176 285.644 676.176C287.5 676.176 288.988 675.76 290.108 674.928C291.26 674.064 291.836 672.88 291.836 671.376C291.836 670.352 291.644 669.52 291.26 668.88C290.876 668.24 290.22 667.696 289.292 667.248C288.364 666.768 287.004 666.288 285.212 665.808C282.556 665.104 280.636 664.224 279.452 663.168C278.3 662.112 277.724 660.704 277.724 658.944C277.724 657.696 278.092 656.576 278.828 655.584C279.564 654.56 280.556 653.776 281.804 653.232C283.084 652.656 284.508 652.368 286.076 652.368ZM304.981 652.896V678H302.197V652.896H304.981ZM303.541 641.856C304.181 641.856 304.693 642.048 305.077 642.432C305.461 642.816 305.653 643.296 305.653 643.872C305.653 644.448 305.461 644.928 305.077 645.312C304.693 645.696 304.181 645.888 303.541 645.888C302.933 645.888 302.437 645.696 302.053 645.312C301.669 644.928 301.477 644.448 301.477 643.872C301.477 643.296 301.669 642.816 302.053 642.432C302.437 642.048 302.933 641.856 303.541 641.856ZM330.735 672.432C330.735 673.744 330.895 674.688 331.215 675.264C331.567 675.84 332.111 676.272 332.847 676.56L332.223 678.528C331.071 678.304 330.175 677.872 329.535 677.232C328.927 676.592 328.527 675.616 328.335 674.304C326.607 677.12 323.999 678.528 320.511 678.528C318.111 678.528 316.207 677.856 314.799 676.512C313.423 675.136 312.735 673.312 312.735 671.04C312.735 668.448 313.647 666.448 315.471 665.04C317.327 663.632 319.887 662.928 323.151 662.928H327.951V660.48C327.951 658.464 327.503 657.008 326.607 656.112C325.711 655.184 324.223 654.72 322.143 654.72C320.223 654.72 317.951 655.2 315.327 656.16L314.607 654.048C317.423 652.928 320.063 652.368 322.527 652.368C327.999 652.368 330.735 655.024 330.735 660.336V672.432ZM320.991 676.272C323.999 676.272 326.319 674.8 327.951 671.856V664.944H323.583C321.023 664.944 319.071 665.44 317.727 666.432C316.383 667.424 315.711 668.912 315.711 670.896C315.711 672.624 316.175 673.952 317.103 674.88C318.031 675.808 319.327 676.272 320.991 676.272Z" fill="white"/>
<rect x="3" y="710" width="99" height="101" stroke="#C5FA9A" stroke-width="6"/>
<rect x="102" y="710" width="466" height="101" stroke="#C5FA9A" stroke-width="6"/>
<path d="M42.9969 746.552C46.2929 746.552 48.7889 747.96 50.4849 750.776C52.1809 753.56 53.0289 757.656 53.0289 763.064C53.0289 768.44 52.1649 772.536 50.4369 775.352C48.7409 778.136 46.2609 779.528 42.9969 779.528C39.7009 779.528 37.2049 778.136 35.5089 775.352C33.8129 772.536 32.9649 768.424 32.9649 763.016C32.9649 757.608 33.8129 753.512 35.5089 750.728C37.2049 747.944 39.7009 746.552 42.9969 746.552ZM42.9969 748.856C38.2289 748.856 35.8449 753.576 35.8449 763.016C35.8449 772.488 38.2289 777.224 42.9969 777.224C45.3329 777.224 47.0929 776.072 48.2769 773.768C49.4929 771.464 50.1009 767.896 50.1009 763.064C50.1009 758.232 49.4929 754.664 48.2769 752.36C47.0929 750.024 45.3329 748.856 42.9969 748.856ZM74.498 747.08V749.24L61.922 779.384L59.33 778.52L71.618 749.432H56.69V747.08H74.498Z" fill="white"/>
<path d="M132.208 746.12V779H129.328V746.12H132.208ZM149.44 746.12L135.808 761.24L150.256 779H146.752L132.4 761.384L146.128 746.12H149.44ZM172.584 765.512C172.584 766.216 172.552 766.888 172.488 767.528H155.736C155.896 770.792 156.664 773.224 158.04 774.824C159.448 776.392 161.288 777.176 163.56 777.176C164.872 777.176 166.024 776.984 167.016 776.6C168.04 776.184 169.144 775.544 170.328 774.68L171.624 776.456C170.376 777.48 169.096 778.248 167.784 778.76C166.472 779.272 165.016 779.528 163.416 779.528C160.088 779.528 157.48 778.392 155.592 776.12C153.704 773.848 152.76 770.696 152.76 766.664C152.76 764.008 153.16 761.688 153.96 759.704C154.792 757.688 155.96 756.136 157.464 755.048C159 753.928 160.776 753.368 162.792 753.368C165.992 753.368 168.424 754.456 170.088 756.632C171.752 758.776 172.584 761.736 172.584 765.512ZM169.848 764.648C169.848 761.832 169.256 759.64 168.072 758.072C166.92 756.472 165.192 755.672 162.888 755.672C160.808 755.672 159.128 756.472 157.848 758.072C156.568 759.672 155.864 762.104 155.736 765.368H169.848V764.648ZM191.598 753.368C193.87 753.368 195.598 754.04 196.782 755.384C197.998 756.728 198.606 758.616 198.606 761.048V779H195.822V761.432C195.822 759.416 195.422 757.944 194.622 757.016C193.822 756.088 192.638 755.624 191.07 755.624C189.47 755.624 188.046 756.072 186.798 756.968C185.582 757.832 184.414 759.112 183.294 760.808V779H180.51V753.896H182.91L183.198 758.168C184.222 756.664 185.438 755.496 186.846 754.664C188.254 753.8 189.838 753.368 191.598 753.368ZM216.135 779.096C215.463 781.048 214.727 782.648 213.927 783.896C213.127 785.144 212.087 786.168 210.807 786.968C209.527 787.8 207.879 788.408 205.863 788.792L205.575 786.632C207.239 786.216 208.535 785.704 209.463 785.096C210.423 784.488 211.175 783.72 211.719 782.792C212.295 781.896 212.871 780.632 213.447 779H212.487L203.751 753.896H206.775L214.359 776.936L221.799 753.896H224.727L216.135 779.096ZM245.563 773.432C245.563 774.744 245.723 775.688 246.043 776.264C246.395 776.84 246.939 777.272 247.675 777.56L247.051 779.528C245.899 779.304 245.003 778.872 244.363 778.232C243.755 777.592 243.355 776.616 243.163 775.304C241.435 778.12 238.827 779.528 235.339 779.528C232.939 779.528 231.035 778.856 229.627 777.512C228.251 776.136 227.563 774.312 227.563 772.04C227.563 769.448 228.475 767.448 230.299 766.04C232.155 764.632 234.715 763.928 237.979 763.928H242.779V761.48C242.779 759.464 242.331 758.008 241.435 757.112C240.539 756.184 239.051 755.72 236.971 755.72C235.051 755.72 232.779 756.2 230.155 757.16L229.435 755.048C232.251 753.928 234.891 753.368 237.355 753.368C242.827 753.368 245.563 756.024 245.563 761.336V773.432ZM235.819 777.272C238.827 777.272 241.147 775.8 242.779 772.856V765.944H238.411C235.851 765.944 233.899 766.44 232.555 767.432C231.211 768.424 230.539 769.912 230.539 771.896C230.539 773.624 231.003 774.952 231.931 775.88C232.859 776.808 234.155 777.272 235.819 777.272Z" fill="white"/>
<rect x="3" y="811" width="99" height="101" stroke="#C5FA9A" stroke-width="6"/>
<rect x="102" y="811" width="466" height="101" stroke="#C5FA9A" stroke-width="6"/>
<path d="M40.0906 847.552C43.3866 847.552 45.8826 848.96 47.5786 851.776C49.2746 854.56 50.1226 858.656 50.1226 864.064C50.1226 869.44 49.2586 873.536 47.5306 876.352C45.8346 879.136 43.3546 880.528 40.0906 880.528C36.7946 880.528 34.2986 879.136 32.6026 876.352C30.9066 873.536 30.0586 869.424 30.0586 864.016C30.0586 858.608 30.9066 854.512 32.6026 851.728C34.2986 848.944 36.7946 847.552 40.0906 847.552ZM40.0906 849.856C35.3226 849.856 32.9386 854.576 32.9386 864.016C32.9386 873.488 35.3226 878.224 40.0906 878.224C42.4266 878.224 44.1866 877.072 45.3706 874.768C46.5866 872.464 47.1946 868.896 47.1946 864.064C47.1946 859.232 46.5866 855.664 45.3706 853.36C44.1866 851.024 42.4266 849.856 40.0906 849.856ZM69.4573 863.104C71.9213 864.096 73.7133 865.264 74.8333 866.608C75.9853 867.92 76.5613 869.616 76.5613 871.696C76.5613 873.456 76.1133 875.008 75.2173 876.352C74.3533 877.664 73.1213 878.688 71.5213 879.424C69.9533 880.16 68.1453 880.528 66.0973 880.528C64.0493 880.528 62.2413 880.16 60.6733 879.424C59.1373 878.688 57.9373 877.664 57.0733 876.352C56.2413 875.008 55.8253 873.472 55.8253 871.744C55.8253 867.648 58.1133 864.688 62.6893 862.864C60.8013 862 59.4093 861.008 58.5133 859.888C57.6493 858.736 57.2173 857.28 57.2173 855.52C57.2173 853.888 57.6333 852.464 58.4653 851.248C59.2973 850.032 60.4013 849.12 61.7773 848.512C63.1533 847.872 64.6253 847.552 66.1933 847.552C67.7613 847.552 69.2333 847.856 70.6093 848.464C71.9853 849.072 73.0893 849.968 73.9213 851.152C74.7853 852.336 75.2173 853.776 75.2173 855.472C75.2173 857.136 74.7533 858.576 73.8253 859.792C72.8973 860.976 71.4413 862.08 69.4573 863.104ZM60.0013 855.568C60.0013 857.104 60.4333 858.32 61.2973 859.216C62.1933 860.112 63.7293 860.96 65.9053 861.76L67.3932 862.288C69.1853 861.328 70.4653 860.336 71.2333 859.312C72.0333 858.288 72.4333 857.04 72.4333 855.568C72.4333 853.744 71.8573 852.32 70.7053 851.296C69.5853 850.272 68.0813 849.76 66.1933 849.76C64.3693 849.76 62.8813 850.272 61.7293 851.296C60.5773 852.32 60.0013 853.744 60.0013 855.568ZM66.1453 878.176C68.4173 878.176 70.2253 877.616 71.5693 876.496C72.9453 875.344 73.6333 873.744 73.6333 871.696C73.6333 870.416 73.3933 869.36 72.9133 868.528C72.4333 867.664 71.6973 866.928 70.7053 866.32C69.7133 865.68 68.3213 865.024 66.5293 864.352L64.8973 863.728C62.7533 864.56 61.1853 865.632 60.1933 866.944C59.2333 868.224 58.7533 869.824 58.7533 871.744C58.7533 873.792 59.4253 875.376 60.7693 876.496C62.1133 877.616 63.9053 878.176 66.1453 878.176Z" fill="white"/>
<path d="M136.816 846.592C138.832 846.592 140.56 846.896 142 847.504C143.472 848.08 144.896 848.992 146.272 850.24L144.592 852.064C143.344 851.008 142.128 850.24 140.944 849.76C139.76 849.28 138.416 849.04 136.912 849.04C134.864 849.04 133.216 849.552 131.968 850.576C130.72 851.568 130.096 852.912 130.096 854.608C130.096 855.76 130.32 856.72 130.768 857.488C131.248 858.224 132.032 858.896 133.12 859.504C134.208 860.08 135.76 860.672 137.776 861.28C139.952 861.952 141.712 862.672 143.056 863.44C144.4 864.208 145.44 865.2 146.176 866.416C146.912 867.632 147.28 869.168 147.28 871.024C147.28 872.88 146.832 874.528 145.936 875.968C145.04 877.408 143.76 878.528 142.096 879.328C140.464 880.128 138.56 880.528 136.384 880.528C132.288 880.528 128.784 879.152 125.872 876.4L127.504 874.576C128.848 875.728 130.208 876.608 131.584 877.216C132.96 877.792 134.544 878.08 136.336 878.08C138.704 878.08 140.624 877.456 142.096 876.208C143.6 874.96 144.352 873.264 144.352 871.12C144.352 869.776 144.096 868.672 143.584 867.808C143.104 866.944 142.304 866.208 141.184 865.6C140.096 864.96 138.544 864.32 136.528 863.68C133.168 862.656 130.768 861.472 129.328 860.128C127.888 858.784 127.168 856.96 127.168 854.656C127.168 853.12 127.568 851.744 128.368 850.528C129.2 849.28 130.336 848.32 131.776 847.648C133.248 846.944 134.928 846.592 136.816 846.592ZM164.707 854.368C165.699 854.368 166.531 854.464 167.203 854.656L166.675 857.296C165.971 857.104 165.235 857.008 164.467 857.008C162.771 857.008 161.395 857.632 160.339 858.88C159.315 860.096 158.451 862.016 157.747 864.64V880H154.963V854.896H157.363L157.603 860.512C158.275 858.432 159.187 856.896 160.339 855.904C161.523 854.88 162.979 854.368 164.707 854.368ZM175.653 854.896V880H172.869V854.896H175.653ZM174.213 843.856C174.853 843.856 175.365 844.048 175.749 844.432C176.133 844.816 176.325 845.296 176.325 845.872C176.325 846.448 176.133 846.928 175.749 847.312C175.365 847.696 174.853 847.888 174.213 847.888C173.605 847.888 173.109 847.696 172.725 847.312C172.341 846.928 172.149 846.448 172.149 845.872C172.149 845.296 172.341 844.816 172.725 844.432C173.109 844.048 173.605 843.856 174.213 843.856ZM202.333 847.12V877.408H216.061L215.677 880H199.453V847.12H202.333ZM237.219 874.432C237.219 875.744 237.379 876.688 237.699 877.264C238.051 877.84 238.595 878.272 239.331 878.56L238.707 880.528C237.555 880.304 236.659 879.872 236.019 879.232C235.411 878.592 235.011 877.616 234.819 876.304C233.091 879.12 230.483 880.528 226.995 880.528C224.595 880.528 222.691 879.856 221.283 878.512C219.907 877.136 219.219 875.312 219.219 873.04C219.219 870.448 220.131 868.448 221.955 867.04C223.811 865.632 226.371 864.928 229.635 864.928H234.435V862.48C234.435 860.464 233.987 859.008 233.091 858.112C232.195 857.184 230.707 856.72 228.627 856.72C226.707 856.72 224.435 857.2 221.811 858.16L221.091 856.048C223.907 854.928 226.547 854.368 229.011 854.368C234.483 854.368 237.219 857.024 237.219 862.336V874.432ZM227.475 878.272C230.483 878.272 232.803 876.8 234.435 873.856V866.944H230.067C227.507 866.944 225.555 867.44 224.211 868.432C222.867 869.424 222.195 870.912 222.195 872.896C222.195 874.624 222.659 875.952 223.587 876.88C224.515 877.808 225.811 878.272 227.475 878.272ZM258.442 854.368C260.714 854.368 262.442 855.04 263.626 856.384C264.842 857.728 265.45 859.616 265.45 862.048V880H262.666V862.432C262.666 860.416 262.266 858.944 261.466 858.016C260.666 857.088 259.482 856.624 257.914 856.624C256.314 856.624 254.89 857.072 253.642 857.968C252.426 858.832 251.258 860.112 250.138 861.808V880H247.354V854.896H249.754L250.042 859.168C251.066 857.664 252.282 856.496 253.69 855.664C255.098 854.8 256.682 854.368 258.442 854.368ZM278.169 844.336V880H275.385V844.672L278.169 844.336ZM292.233 854.896L281.673 866.128L293.337 880H289.977L278.457 866.272L289.017 854.896H292.233ZM313.719 874.432C313.719 875.744 313.879 876.688 314.199 877.264C314.551 877.84 315.095 878.272 315.831 878.56L315.207 880.528C314.055 880.304 313.159 879.872 312.519 879.232C311.911 878.592 311.511 877.616 311.319 876.304C309.591 879.12 306.983 880.528 303.495 880.528C301.095 880.528 299.191 879.856 297.783 878.512C296.407 877.136 295.719 875.312 295.719 873.04C295.719 870.448 296.631 868.448 298.455 867.04C300.311 865.632 302.871 864.928 306.135 864.928H310.935V862.48C310.935 860.464 310.487 859.008 309.591 858.112C308.695 857.184 307.207 856.72 305.127 856.72C303.207 856.72 300.935 857.2 298.311 858.16L297.591 856.048C300.407 854.928 303.047 854.368 305.511 854.368C310.983 854.368 313.719 857.024 313.719 862.336V874.432ZM303.975 878.272C306.983 878.272 309.303 876.8 310.935 873.856V866.944H306.567C304.007 866.944 302.055 867.44 300.711 868.432C299.367 869.424 298.695 870.912 298.695 872.896C298.695 874.624 299.159 875.952 300.087 876.88C301.015 877.808 302.311 878.272 303.975 878.272Z" fill="white"/>
<rect x="3" y="912" width="99" height="101" stroke="#C5FA9A" stroke-width="6"/>
<rect x="102" y="912" width="466" height="101" stroke="#C5FA9A" stroke-width="6"/>
<path d="M40.8172 948.552C44.1132 948.552 46.6092 949.96 48.3052 952.776C50.0012 955.56 50.8492 959.656 50.8492 965.064C50.8492 970.44 49.9852 974.536 48.2572 977.352C46.5612 980.136 44.0812 981.528 40.8172 981.528C37.5212 981.528 35.0252 980.136 33.3292 977.352C31.6332 974.536 30.7852 970.424 30.7852 965.016C30.7852 959.608 31.6332 955.512 33.3292 952.728C35.0252 949.944 37.5212 948.552 40.8172 948.552ZM40.8172 950.856C36.0492 950.856 33.6652 955.576 33.6652 965.016C33.6652 974.488 36.0492 979.224 40.8172 979.224C43.1532 979.224 44.9132 978.072 46.0972 975.768C47.3132 973.464 47.9212 969.896 47.9212 965.064C47.9212 960.232 47.3132 956.664 46.0972 954.36C44.9132 952.024 43.1532 950.856 40.8172 950.856ZM65.7791 948.552C69.0111 948.552 71.4271 949.688 73.0271 951.96C74.6591 954.2 75.4751 957.352 75.4751 961.416C75.4751 965.544 74.8831 968.92 73.6991 971.544C72.5151 974.168 70.7711 976.264 68.4671 977.832C66.1951 979.4 63.1871 980.76 59.4431 981.912L58.7231 979.752C63.1391 978.408 66.4991 976.568 68.8031 974.232C71.1391 971.896 72.4191 968.696 72.6431 964.632C71.6831 966.04 70.5311 967.144 69.1871 967.944C67.8431 968.712 66.3711 969.096 64.7711 969.096C63.1071 969.096 61.6191 968.696 60.3071 967.896C58.9951 967.064 57.9551 965.896 57.1871 964.392C56.4511 962.856 56.0831 961.064 56.0831 959.016C56.0831 956.904 56.4991 955.064 57.3311 953.496C58.1951 951.896 59.3631 950.68 60.8351 949.848C62.3071 948.984 63.9551 948.552 65.7791 948.552ZM65.2511 966.792C66.7551 966.792 68.0991 966.392 69.2831 965.592C70.4991 964.76 71.6191 963.56 72.6431 961.992C72.6751 958.184 72.1471 955.384 71.0591 953.592C69.9711 951.768 68.2431 950.856 65.8751 950.856C63.7311 950.856 62.0351 951.576 60.7871 953.016C59.5711 954.424 58.9631 956.44 58.9631 959.064C58.9631 961.528 59.5231 963.432 60.6431 964.776C61.7951 966.12 63.3311 966.792 65.2511 966.792Z" fill="white"/>
<path d="M150.448 970.728C150.448 973.992 149.52 976.616 147.664 978.6C145.808 980.552 143.136 981.528 139.648 981.528C136.128 981.528 133.44 980.552 131.584 978.6C129.76 976.648 128.848 974.024 128.848 970.728V948.12H131.728V970.488C131.728 973.24 132.368 975.352 133.648 976.824C134.96 978.296 136.96 979.032 139.648 979.032C142.336 979.032 144.32 978.296 145.6 976.824C146.88 975.32 147.52 973.208 147.52 970.488V948.12H150.448V970.728ZM163.521 948.12V981H160.641V948.12H163.521ZM180.753 948.12L167.121 963.24L181.569 981H178.065L163.713 963.384L177.441 948.12H180.753Z" fill="white"/>
<rect x="3" y="1013" width="99" height="101" stroke="#C5FA9A" stroke-width="6"/>
<rect x="102" y="1013" width="466" height="101" stroke="#C5FA9A" stroke-width="6"/>
<path d="M43.9066 1050.08V1082H41.1226V1053.15L33.2506 1058.05L31.9546 1055.98L41.5066 1050.08H43.9066ZM62.9188 1049.55C66.2148 1049.55 68.7108 1050.96 70.4068 1053.78C72.1028 1056.56 72.9508 1060.66 72.9508 1066.06C72.9508 1071.44 72.0868 1075.54 70.3588 1078.35C68.6628 1081.14 66.1828 1082.53 62.9188 1082.53C59.6228 1082.53 57.1268 1081.14 55.4308 1078.35C53.7348 1075.54 52.8867 1071.42 52.8867 1066.02C52.8867 1060.61 53.7348 1056.51 55.4308 1053.73C57.1268 1050.94 59.6228 1049.55 62.9188 1049.55ZM62.9188 1051.86C58.1508 1051.86 55.7668 1056.58 55.7668 1066.02C55.7668 1075.49 58.1508 1080.22 62.9188 1080.22C65.2548 1080.22 67.0148 1079.07 68.1988 1076.77C69.4148 1074.46 70.0228 1070.9 70.0228 1066.06C70.0228 1061.23 69.4148 1057.66 68.1988 1055.36C67.0148 1053.02 65.2548 1051.86 62.9188 1051.86Z" fill="white"/>
<path d="M150.448 1071.73C150.448 1074.99 149.52 1077.62 147.664 1079.6C145.808 1081.55 143.136 1082.53 139.648 1082.53C136.128 1082.53 133.44 1081.55 131.584 1079.6C129.76 1077.65 128.848 1075.02 128.848 1071.73V1049.12H131.728V1071.49C131.728 1074.24 132.368 1076.35 133.648 1077.82C134.96 1079.3 136.96 1080.03 139.648 1080.03C142.336 1080.03 144.32 1079.3 145.6 1077.82C146.88 1076.32 147.52 1074.21 147.52 1071.49V1049.12H150.448V1071.73ZM167.707 1048.59C169.723 1048.59 171.451 1048.9 172.891 1049.5C174.363 1050.08 175.787 1050.99 177.163 1052.24L175.483 1054.06C174.235 1053.01 173.019 1052.24 171.835 1051.76C170.651 1051.28 169.307 1051.04 167.803 1051.04C165.755 1051.04 164.107 1051.55 162.859 1052.58C161.611 1053.57 160.987 1054.91 160.987 1056.61C160.987 1057.76 161.211 1058.72 161.659 1059.49C162.139 1060.22 162.923 1060.9 164.011 1061.5C165.099 1062.08 166.651 1062.67 168.667 1063.28C170.843 1063.95 172.603 1064.67 173.947 1065.44C175.291 1066.21 176.331 1067.2 177.067 1068.42C177.803 1069.63 178.171 1071.17 178.171 1073.02C178.171 1074.88 177.723 1076.53 176.827 1077.97C175.931 1079.41 174.651 1080.53 172.987 1081.33C171.355 1082.13 169.451 1082.53 167.275 1082.53C163.179 1082.53 159.675 1081.15 156.763 1078.4L158.395 1076.58C159.739 1077.73 161.099 1078.61 162.475 1079.22C163.851 1079.79 165.435 1080.08 167.227 1080.08C169.595 1080.08 171.515 1079.46 172.987 1078.21C174.491 1076.96 175.243 1075.26 175.243 1073.12C175.243 1071.78 174.987 1070.67 174.475 1069.81C173.995 1068.94 173.195 1068.21 172.075 1067.6C170.987 1066.96 169.435 1066.32 167.419 1065.68C164.059 1064.66 161.659 1063.47 160.219 1062.13C158.779 1060.78 158.059 1058.96 158.059 1056.66C158.059 1055.12 158.459 1053.74 159.259 1052.53C160.091 1051.28 161.227 1050.32 162.667 1049.65C164.139 1048.94 165.819 1048.59 167.707 1048.59ZM203.811 1082L200.931 1073.02H187.107L184.227 1082H181.299L192.291 1049.12H195.891L206.835 1082H203.811ZM187.923 1070.58H200.163L194.067 1051.47L187.923 1070.58Z" fill="white"/>
<rect x="568" y="306" width="132" height="101" stroke="#C5FA9A" stroke-width="6"/>
<path d="M621.236 342.408C624.788 342.408 627.46 343.832 629.252 346.68C631.076 349.496 631.988 353.592 631.988 358.968C631.988 364.344 631.076 368.456 629.252 371.304C627.46 374.152 624.788 375.576 621.236 375.576C617.684 375.576 614.996 374.152 613.172 371.304C611.38 368.456 610.484 364.344 610.484 358.968C610.484 353.592 611.38 349.496 613.172 346.68C614.996 343.832 617.684 342.408 621.236 342.408ZM621.236 345.912C619.156 345.912 617.604 346.936 616.58 348.984C615.588 351.032 615.092 354.36 615.092 358.968C615.092 363.576 615.588 366.92 616.58 369C617.604 371.048 619.156 372.072 621.236 372.072C623.284 372.072 624.82 371.048 625.844 369C626.868 366.92 627.38 363.576 627.38 358.968C627.38 354.392 626.868 351.08 625.844 349.032C624.82 346.952 623.284 345.912 621.236 345.912ZM658.705 363.576V367.08H654.529V375H650.257V367.08H636.529V363.912L646.177 342.408L649.873 343.944L641.185 363.576H650.305L650.689 354.936H654.529V363.576H658.705Z" fill="#C5FA9A"/>
<rect x="568" y="407" width="132" height="101" stroke="#C5FA9A" stroke-width="6"/>
<path d="M624.236 443.408C627.788 443.408 630.46 444.832 632.252 447.68C634.076 450.496 634.988 454.592 634.988 459.968C634.988 465.344 634.076 469.456 632.252 472.304C630.46 475.152 627.788 476.576 624.236 476.576C620.684 476.576 617.996 475.152 616.172 472.304C614.38 469.456 613.484 465.344 613.484 459.968C613.484 454.592 614.38 450.496 616.172 447.68C617.996 444.832 620.684 443.408 624.236 443.408ZM624.236 446.912C622.156 446.912 620.604 447.936 619.58 449.984C618.588 452.032 618.092 455.36 618.092 459.968C618.092 464.576 618.588 467.92 619.58 470C620.604 472.048 622.156 473.072 624.236 473.072C626.284 473.072 627.82 472.048 628.844 470C629.868 467.92 630.38 464.576 630.38 459.968C630.38 455.392 629.868 452.08 628.844 450.032C627.82 447.952 626.284 446.912 624.236 446.912ZM651.895 443.888V476H647.479V448.592L639.991 453.152L638.071 450.032L648.007 443.888H651.895Z" fill="#C5FA9A"/>
<rect x="568" y="508" width="132" height="101" stroke="#C5FA9A" stroke-width="6"/>
<path d="M622.408 544.408C625.96 544.408 628.632 545.832 630.424 548.68C632.248 551.496 633.16 555.592 633.16 560.968C633.16 566.344 632.248 570.456 630.424 573.304C628.632 576.152 625.96 577.576 622.408 577.576C618.856 577.576 616.168 576.152 614.344 573.304C612.552 570.456 611.656 566.344 611.656 560.968C611.656 555.592 612.552 551.496 614.344 548.68C616.168 545.832 618.856 544.408 622.408 544.408ZM622.408 547.912C620.328 547.912 618.776 548.936 617.752 550.984C616.76 553.032 616.264 556.36 616.264 560.968C616.264 565.576 616.76 568.92 617.752 571C618.776 573.048 620.328 574.072 622.408 574.072C624.456 574.072 625.992 573.048 627.016 571C628.04 568.92 628.552 565.576 628.552 560.968C628.552 556.392 628.04 553.08 627.016 551.032C625.992 548.952 624.456 547.912 622.408 547.912ZM646.163 544.408C648.083 544.408 649.763 544.792 651.203 545.56C652.675 546.328 653.811 547.384 654.611 548.728C655.411 550.04 655.811 551.528 655.811 553.192C655.811 555.144 655.363 557.016 654.467 558.808C653.603 560.6 652.259 562.536 650.435 564.616C648.611 566.696 645.843 569.592 642.131 573.304H656.579L656.051 577H637.091V573.496C641.379 569.048 644.419 565.8 646.211 563.752C648.003 561.672 649.283 559.864 650.051 558.328C650.819 556.792 651.203 555.144 651.203 553.384C651.203 551.72 650.723 550.424 649.763 549.496C648.803 548.536 647.523 548.056 645.923 548.056C644.611 548.056 643.459 548.328 642.467 548.872C641.475 549.416 640.419 550.312 639.299 551.56L636.419 549.256C637.731 547.624 639.187 546.408 640.787 545.608C642.387 544.808 644.179 544.408 646.163 544.408Z" fill="#C5FA9A"/>
<rect x="568" y="609" width="132" height="101" stroke="#C5FA9A" stroke-width="6"/>
<path d="M622.408 645.408C625.96 645.408 628.632 646.832 630.424 649.68C632.248 652.496 633.16 656.592 633.16 661.968C633.16 667.344 632.248 671.456 630.424 674.304C628.632 677.152 625.96 678.576 622.408 678.576C618.856 678.576 616.168 677.152 614.344 674.304C612.552 671.456 611.656 667.344 611.656 661.968C611.656 656.592 612.552 652.496 614.344 649.68C616.168 646.832 618.856 645.408 622.408 645.408ZM622.408 648.912C620.328 648.912 618.776 649.936 617.752 651.984C616.76 654.032 616.264 657.36 616.264 661.968C616.264 666.576 616.76 669.92 617.752 672C618.776 674.048 620.328 675.072 622.408 675.072C624.456 675.072 625.992 674.048 627.016 672C628.04 669.92 628.552 666.576 628.552 661.968C628.552 657.392 628.04 654.08 627.016 652.032C625.992 649.952 624.456 648.912 622.408 648.912ZM646.163 645.408C648.083 645.408 649.763 645.792 651.203 646.56C652.675 647.328 653.811 648.384 654.611 649.728C655.411 651.04 655.811 652.528 655.811 654.192C655.811 656.144 655.363 658.016 654.467 659.808C653.603 661.6 652.259 663.536 650.435 665.616C648.611 667.696 645.843 670.592 642.131 674.304H656.579L656.051 678H637.091V674.496C641.379 670.048 644.419 666.8 646.211 664.752C648.003 662.672 649.283 660.864 650.051 659.328C650.819 657.792 651.203 656.144 651.203 654.384C651.203 652.72 650.723 651.424 649.763 650.496C648.803 649.536 647.523 649.056 645.923 649.056C644.611 649.056 643.459 649.328 642.467 649.872C641.475 650.416 640.419 651.312 639.299 652.56L636.419 650.256C637.731 648.624 639.187 647.408 640.787 646.608C642.387 645.808 644.179 645.408 646.163 645.408Z" fill="#C5FA9A"/>
<rect x="568" y="710" width="132" height="101" stroke="#C5FA9A" stroke-width="6"/>
<path d="M622.408 746.408C625.96 746.408 628.632 747.832 630.424 750.68C632.248 753.496 633.16 757.592 633.16 762.968C633.16 768.344 632.248 772.456 630.424 775.304C628.632 778.152 625.96 779.576 622.408 779.576C618.856 779.576 616.168 778.152 614.344 775.304C612.552 772.456 611.656 768.344 611.656 762.968C611.656 757.592 612.552 753.496 614.344 750.68C616.168 747.832 618.856 746.408 622.408 746.408ZM622.408 749.912C620.328 749.912 618.776 750.936 617.752 752.984C616.76 755.032 616.264 758.36 616.264 762.968C616.264 767.576 616.76 770.92 617.752 773C618.776 775.048 620.328 776.072 622.408 776.072C624.456 776.072 625.992 775.048 627.016 773C628.04 770.92 628.552 767.576 628.552 762.968C628.552 758.392 628.04 755.08 627.016 753.032C625.992 750.952 624.456 749.912 622.408 749.912ZM646.163 746.408C648.083 746.408 649.763 746.792 651.203 747.56C652.675 748.328 653.811 749.384 654.611 750.728C655.411 752.04 655.811 753.528 655.811 755.192C655.811 757.144 655.363 759.016 654.467 760.808C653.603 762.6 652.259 764.536 650.435 766.616C648.611 768.696 645.843 771.592 642.131 775.304H656.579L656.051 779H637.091V775.496C641.379 771.048 644.419 767.8 646.211 765.752C648.003 763.672 649.283 761.864 650.051 760.328C650.819 758.792 651.203 757.144 651.203 755.384C651.203 753.72 650.723 752.424 649.763 751.496C648.803 750.536 647.523 750.056 645.923 750.056C644.611 750.056 643.459 750.328 642.467 750.872C641.475 751.416 640.419 752.312 639.299 753.56L636.419 751.256C637.731 749.624 639.187 748.408 640.787 747.608C642.387 746.808 644.179 746.408 646.163 746.408Z" fill="#C5FA9A"/>
<rect x="568" y="811" width="132" height="101" stroke="#C5FA9A" stroke-width="6"/>
<path d="M621.236 847.408C624.788 847.408 627.46 848.832 629.252 851.68C631.076 854.496 631.988 858.592 631.988 863.968C631.988 869.344 631.076 873.456 629.252 876.304C627.46 879.152 624.788 880.576 621.236 880.576C617.684 880.576 614.996 879.152 613.172 876.304C611.38 873.456 610.484 869.344 610.484 863.968C610.484 858.592 611.38 854.496 613.172 851.68C614.996 848.832 617.684 847.408 621.236 847.408ZM621.236 850.912C619.156 850.912 617.604 851.936 616.58 853.984C615.588 856.032 615.092 859.36 615.092 863.968C615.092 868.576 615.588 871.92 616.58 874C617.604 876.048 619.156 877.072 621.236 877.072C623.284 877.072 624.82 876.048 625.844 874C626.868 871.92 627.38 868.576 627.38 863.968C627.38 859.392 626.868 856.08 625.844 854.032C624.82 851.952 623.284 850.912 621.236 850.912ZM658.705 868.576V872.08H654.529V880H650.257V872.08H636.529V868.912L646.177 847.408L649.873 848.944L641.185 868.576H650.305L650.689 859.936H654.529V868.576H658.705Z" fill="#C5FA9A"/>
<rect x="568" y="912" width="132" height="101" stroke="#C5FA9A" stroke-width="6"/>
<path d="M629.067 948.888V981H624.651V953.592L617.163 958.152L615.243 955.032L625.179 948.888H629.067ZM649.176 948.888V981H644.76V953.592L637.272 958.152L635.352 955.032L645.288 948.888H649.176Z" fill="#C5FA9A"/>
<rect x="568" y="1013" width="132" height="101" stroke="#C5FA9A" stroke-width="6"/>
<path d="M627.145 1049.89V1082H622.729V1054.59L615.241 1059.15L613.321 1056.03L623.257 1049.89H627.145ZM643.206 1049.41C645.19 1049.41 646.886 1049.78 648.294 1050.51C649.734 1051.25 650.822 1052.24 651.558 1053.49C652.326 1054.74 652.71 1056.1 652.71 1057.57C652.71 1059.52 652.134 1061.14 650.982 1062.42C649.862 1063.66 648.358 1064.51 646.47 1064.96C648.614 1065.15 650.358 1065.92 651.702 1067.26C653.046 1068.61 653.718 1070.43 653.718 1072.74C653.718 1074.59 653.27 1076.27 652.374 1077.78C651.478 1079.28 650.198 1080.46 648.534 1081.33C646.87 1082.16 644.95 1082.58 642.774 1082.58C640.822 1082.58 639.03 1082.22 637.398 1081.52C635.766 1080.78 634.342 1079.7 633.126 1078.26L635.766 1075.81C636.822 1076.9 637.894 1077.7 638.982 1078.21C640.102 1078.72 641.318 1078.98 642.63 1078.98C644.646 1078.98 646.23 1078.42 647.382 1077.3C648.534 1076.14 649.11 1074.61 649.11 1072.69C649.11 1070.58 648.566 1069.09 647.478 1068.22C646.39 1067.36 644.806 1066.93 642.726 1066.93H640.326L640.854 1063.52H642.486C644.15 1063.52 645.526 1063.02 646.614 1062.03C647.734 1061.04 648.294 1059.65 648.294 1057.86C648.294 1056.35 647.814 1055.17 646.854 1054.3C645.894 1053.41 644.598 1052.96 642.966 1052.96C641.718 1052.96 640.566 1053.18 639.51 1053.63C638.486 1054.08 637.43 1054.82 636.342 1055.84L634.038 1053.2C636.758 1050.67 639.814 1049.41 643.206 1049.41Z" fill="#C5FA9A"/>
</svg>
