<svg width="39" height="53" viewBox="0 0 39 53" fill="none" xmlns="http://www.w3.org/2000/svg">
<path d="M20.4695 52.6101L11.8975 37.7629L29.0416 37.7629L20.4695 52.6101Z" fill="black"/>
<rect x="1.64225" y="1.08894" width="36.4547" height="36.4547" fill="#FF775A" stroke="black" stroke-width="1.33821"/>
<g clip-path="url(#clip0_397_1058)">
<path d="M24.4717 15.6017L26.4492 13.6566L28.4266 15.6017L29.7449 14.305L27.7675 12.3599L29.7449 10.4149L28.4266 9.11819L26.4492 11.0632L24.4717 9.11819L23.1534 10.4149L25.1309 12.3599L23.1534 14.305L24.4717 15.6017ZM19.8812 19.2602C20.3991 19.2602 20.8427 19.0786 21.2118 18.7156C21.5803 18.3531 21.7645 17.9172 21.7645 17.4078C21.7645 16.8983 21.5803 16.4621 21.2118 16.099C20.8427 15.7366 20.3991 15.5553 19.8812 15.5553C19.3633 15.5553 18.9201 15.7366 18.5517 16.099C18.1825 16.4621 17.998 16.8983 17.998 17.4078C17.998 17.9172 18.1825 18.3531 18.5517 18.7156C18.9201 19.0786 19.3633 19.2602 19.8812 19.2602ZM19.8812 28.5223C17.3545 26.4074 15.4675 24.4429 14.2201 22.6288C12.9721 20.8153 12.3481 19.1367 12.3481 17.593C12.3481 15.2775 13.1055 13.4328 14.6203 12.0589C16.1345 10.685 17.8881 9.99809 19.8812 9.99809C20.0382 9.99809 20.1951 10.0018 20.3521 10.0092C20.509 10.0172 20.6659 10.029 20.8229 10.0444V11.92C20.6659 11.8891 20.5128 11.8697 20.3634 11.8616C20.2146 11.8542 20.0539 11.8505 19.8812 11.8505C18.2962 11.8505 16.9581 12.3868 15.867 13.4593C14.7766 14.5325 14.2314 15.9104 14.2314 17.593C14.2314 18.689 14.6944 19.9431 15.6203 21.3553C16.5463 22.768 17.9666 24.3389 19.8812 26.0678C21.7959 24.3389 23.2162 22.768 24.1422 21.3553C25.0681 19.9431 25.5311 18.689 25.5311 17.593V17.4078H27.4143V17.593C27.4143 19.1367 26.7907 20.8153 25.5433 22.6288C24.2953 24.4429 22.408 26.4074 19.8812 28.5223Z" fill="white"/>
</g>
<defs>
<clipPath id="clip0_397_1058">
<rect width="20.3962" height="20.3962" fill="white" transform="translate(9.67139 8.21841)"/>
</clipPath>
</defs>
</svg>
